<svg width="20" height="15" viewBox="0 0 20 15" fill="none" xmlns="http://www.w3.org/2000/svg">
<path d="M17.6884 6.84188C18.4778 6.91112 18.9348 7.40968 18.9348 8.17829C18.9348 8.90535 18.9348 9.62549 18.9348 10.3526C18.9348 10.4218 18.9348 10.491 18.9348 10.5811C19.0526 10.5811 19.1564 10.5741 19.2603 10.5811C19.4334 10.588 19.5511 10.7057 19.558 10.8788C19.565 11.3012 19.565 11.7236 19.558 12.139C19.558 12.326 19.4334 12.4299 19.2464 12.4437C19.1495 12.4506 19.0526 12.4437 18.9348 12.4437C18.9348 12.8315 18.9348 13.2054 18.9348 13.5793C18.9348 13.9048 18.8448 13.9948 18.5263 14.0017C18.277 14.0017 18.0347 14.0017 17.7854 14.0017C17.5015 14.0017 17.4253 13.9394 17.363 13.6555C17.2868 13.3162 17.2107 12.9769 17.1622 12.6307C17.1345 12.4645 17.0652 12.4437 16.9198 12.4437C16.4005 12.4506 15.8812 12.4437 15.3688 12.4437C11.2211 12.4437 7.08026 12.4437 2.93254 12.4437C2.77328 12.4437 2.69711 12.4714 2.66941 12.6515C2.61402 13.0115 2.53093 13.3577 2.45476 13.7178C2.41321 13.9117 2.30242 14.0017 2.10161 14.0017C1.81771 14.0017 1.53381 14.0017 1.24991 14.0017C1.01448 14.0017 0.903692 13.8909 0.903692 13.6555C0.903692 13.2608 0.903692 12.8661 0.903692 12.4437C0.792901 12.4437 0.689035 12.4506 0.592093 12.4437C0.405135 12.4368 0.28742 12.326 0.28742 12.139C0.280495 11.7236 0.280495 11.3081 0.28742 10.8927C0.28742 10.6988 0.405135 10.588 0.605942 10.5811C0.69596 10.5811 0.785977 10.5811 0.910616 10.5811C0.910616 10.5049 0.910616 10.4356 0.910616 10.3733C0.910616 9.64626 0.931389 8.9192 0.903692 8.19906C0.875994 7.54124 1.33993 6.89035 2.15701 6.84188C2.15701 6.76571 2.15701 6.68954 2.15701 6.61337C2.15701 4.95152 2.15701 3.28274 2.15701 1.62088C2.15701 0.845346 2.68326 0.319092 3.4588 0.319092C7.7727 0.319092 12.0866 0.319092 16.4005 0.319092C17.176 0.319092 17.7023 0.845346 17.7023 1.62088C17.7023 3.28274 17.7023 4.95152 17.7023 6.61337C17.6884 6.68954 17.6884 6.75879 17.6884 6.84188ZM17.0652 6.84188C17.0652 6.76571 17.0652 6.70339 17.0652 6.63415C17.0652 4.98614 17.0652 3.33121 17.0652 1.6832C17.0652 1.18464 16.8229 0.942288 16.3243 0.942288C12.052 0.942288 7.7727 0.942288 3.50034 0.942288C3.00179 0.942288 2.75943 1.18464 2.75943 1.67628C2.75943 3.33121 2.75943 4.99306 2.75943 6.648C2.75943 6.71032 2.76636 6.77263 2.76636 6.83495C2.98101 6.83495 3.1749 6.83495 3.38263 6.83495C3.38263 6.43334 3.38263 6.04557 3.38263 5.65781C3.38263 4.89612 3.90888 4.36294 4.67749 4.36294C5.87541 4.36294 7.07333 4.36294 8.27126 4.36294C9.08834 4.36294 9.60074 4.87535 9.60074 5.69243C9.60074 6.07327 9.60074 6.45411 9.60074 6.83495C9.82232 6.83495 10.0162 6.83495 10.2239 6.83495C10.2239 6.43334 10.2239 6.04557 10.2239 5.65781C10.2239 4.8892 10.7502 4.36294 11.5119 4.36294C12.7236 4.36294 13.9354 4.36294 15.1472 4.36294C15.9158 4.36294 16.4421 4.8892 16.4421 5.65088C16.4421 6.04557 16.4421 6.44026 16.4421 6.84188C16.6567 6.84188 16.8437 6.84188 17.0652 6.84188ZM18.3116 10.5741C18.3116 9.78475 18.3116 9.01614 18.3116 8.24753C18.3116 7.70051 18.0831 7.472 17.5292 7.472C12.4536 7.472 7.37801 7.472 2.30242 7.472C2.25395 7.472 2.19856 7.472 2.15008 7.472C1.79694 7.48585 1.53381 7.74205 1.52689 8.08827C1.51996 8.90535 1.52689 9.72243 1.52689 10.5326C1.52689 10.5395 1.54074 10.5534 1.54766 10.5672C7.12181 10.5741 12.7029 10.5741 18.3116 10.5741ZM0.903692 11.8136C6.921 11.8136 12.9175 11.8136 18.9141 11.8136C18.9141 11.6059 18.9141 11.4051 18.9141 11.2112C12.9037 11.2112 6.90715 11.2112 0.903692 11.2112C0.903692 11.412 0.903692 11.6059 0.903692 11.8136ZM8.97754 6.84188C8.97754 6.40564 8.99139 5.98325 8.97062 5.56779C8.95677 5.23542 8.69364 4.98614 8.35435 4.98614C7.11488 4.97921 5.86849 4.97921 4.62902 4.98614C4.30357 4.98614 4.03352 5.20772 4.01275 5.52624C3.98505 5.96248 4.00582 6.39872 4.00582 6.8488C5.66768 6.84188 7.30876 6.84188 8.97754 6.84188ZM10.8471 6.83495C12.5021 6.83495 14.157 6.83495 15.8189 6.83495C15.8189 6.40564 15.8327 5.98325 15.8119 5.55394C15.7981 5.22157 15.528 4.98614 15.1887 4.98614C13.9562 4.97921 12.7167 4.97921 11.4842 4.98614C11.1241 4.98614 10.861 5.25619 10.8541 5.61626C10.8402 6.01788 10.8471 6.41949 10.8471 6.83495ZM1.52689 13.3785C1.61691 13.3785 1.69307 13.3924 1.76924 13.3716C1.81771 13.3577 1.89388 13.3162 1.90081 13.2746C1.96313 13.0046 2.0116 12.7345 2.06699 12.4506C1.88696 12.4506 1.71385 12.4506 1.53381 12.4506C1.52689 12.7553 1.52689 13.0531 1.52689 13.3785ZM17.7577 12.4576C17.8062 12.7069 17.8754 12.9492 17.9031 13.1916C17.9239 13.3508 17.9862 13.4062 18.1385 13.3854C18.187 13.3785 18.2355 13.3854 18.2978 13.3854C18.2978 13.0669 18.2978 12.7692 18.2978 12.4645C18.1178 12.4576 17.9446 12.4576 17.7577 12.4576Z" fill="#1A232F"/>
</svg>
