<svg width="20" height="21" viewBox="0 0 20 21" fill="none" xmlns="http://www.w3.org/2000/svg">
<g clip-path="url(#clip0_133_5417)">
<path d="M16.7791 12.7955C17.07 12.9903 17.4146 13.0989 17.7714 13.0989C18.7594 13.0989 19.5632 12.2951 19.5632 11.3071V10.7034C19.5632 9.71535 18.7594 8.91154 17.7714 8.91154C17.5266 8.91154 17.2876 8.96245 17.0666 9.05844L17.0974 8.65821C17.1163 8.4129 17.0312 8.16865 16.864 7.98816C16.6969 7.80762 16.4599 7.7041 16.2138 7.7041H9.06531C8.81925 7.7041 8.58227 7.80766 8.41506 7.98816C8.2479 8.16865 8.16283 8.4129 8.1817 8.65821L8.37763 11.2054C7.95443 11.0866 7.5075 11.0247 7.05632 11.0247H7.0411C6.33735 11.0247 5.64361 11.1745 5.03483 11.4578C4.82929 11.5535 4.69289 11.7453 4.66517 11.9616C3.54872 12.1846 2.77436 12.7242 2.40369 13.0355C2.15149 13.2473 2.09873 13.6132 2.281 13.8865L2.35187 13.9928L1.58756 14.8663C1.41546 15.063 1.29243 15.297 1.22483 15.5528H0.564647C0.470916 15.5528 0.383323 15.5993 0.33079 15.6769C0.278219 15.7545 0.267637 15.8531 0.302433 15.9401L0.67845 16.8802C0.859925 17.3338 1.29292 17.627 1.78153 17.627H18.0639C18.5525 17.627 18.9855 17.3339 19.167 16.8802L19.543 15.9401C19.5778 15.8531 19.5672 15.7544 19.5146 15.6769C19.4621 15.5993 19.3745 15.5528 19.2808 15.5528H16.3086C16.489 15.3268 16.6059 15.0476 16.6294 14.742L16.7791 12.7955ZM17.0139 9.74314C17.2311 9.57059 17.4963 9.47645 17.7714 9.47645C18.4479 9.47645 18.9983 10.0269 18.9983 10.7034V11.3071C18.9983 11.9837 18.4479 12.5341 17.7714 12.5341C17.4097 12.5341 17.0659 12.3704 16.8332 12.0924L17.0139 9.74314ZM2.76697 13.468C3.08858 13.1979 3.75351 12.7337 4.71334 12.5282L4.72471 12.6229C4.74328 12.7778 4.88397 12.8881 5.03878 12.8696C5.19367 12.851 5.30412 12.7104 5.28555 12.5556L5.22526 12.0533C5.22112 12.0188 5.24036 11.9852 5.2732 11.9699C5.80784 11.7211 6.41914 11.5896 7.0411 11.5896H7.05632C7.67828 11.5896 8.28959 11.7211 8.82418 11.9699C8.85702 11.9852 8.8763 12.0187 8.87212 12.0534L8.45227 15.5528H5.64519L5.43476 13.7989C5.41615 13.644 5.27569 13.5336 5.12069 13.5521C4.96584 13.5707 4.85535 13.7113 4.87391 13.8662L5.07629 15.5528H4.07081L2.75108 13.5732C2.72834 13.5391 2.73504 13.4948 2.76697 13.468ZM2.01272 15.2382L2.67652 14.4796L3.39195 15.5527H1.81987C1.86698 15.4374 1.93138 15.3312 2.01272 15.2382ZM16.5342 8.61494L16.0662 14.6987C16.0293 15.1776 15.6242 15.5528 15.1439 15.5528H15.0546C14.8986 15.5528 14.7722 15.6792 14.7722 15.8352C14.7722 15.9912 14.8986 16.1177 15.0546 16.1177H18.8636L18.6425 16.6704C18.5473 16.9084 18.3202 17.0622 18.0639 17.0622H1.78153C1.52523 17.0622 1.29812 16.9084 1.20292 16.6704L0.981825 16.1177H13.847C14.003 16.1177 14.1295 15.9912 14.1295 15.8352C14.1295 15.6792 14.003 15.5528 13.847 15.5528H12.8726C12.8051 15.297 12.682 15.063 12.5099 14.8663L11.7456 13.9928L11.8165 13.8865C11.9987 13.6131 11.9459 13.2473 11.6938 13.0354C11.3231 12.7242 10.5487 12.1846 9.43229 11.9616C9.40457 11.7453 9.26817 11.5535 9.06263 11.4578C9.02874 11.4421 8.99451 11.4268 8.96013 11.4119L8.74499 8.61494C8.73802 8.52471 8.76807 8.4384 8.82961 8.37197C8.89114 8.30554 8.97485 8.26897 9.06538 8.26897H16.2139C16.3044 8.26897 16.3881 8.30554 16.4496 8.37197C16.5111 8.4384 16.5412 8.52467 16.5342 8.61494ZM11.3465 13.5731L10.0267 15.5528H9.02121L9.38409 12.5282C10.344 12.7337 11.0089 13.1979 11.3305 13.468C11.3625 13.4948 11.3692 13.5391 11.3465 13.5731ZM11.421 14.4796L12.0848 15.2382C12.1661 15.3312 12.2305 15.4374 12.2776 15.5528H10.7056L11.421 14.4796Z" fill="#1A232F"/>
<path d="M12.8304 4.90973C12.6845 4.77597 12.62 4.71063 12.62 4.56414C12.62 4.41822 12.6845 4.35307 12.8302 4.21961C12.9963 4.06751 13.2238 3.85922 13.2238 3.45846C13.2238 3.30248 13.0973 3.17603 12.9413 3.17603C12.7854 3.17603 12.6589 3.30248 12.6589 3.45846C12.6589 3.60439 12.5945 3.66954 12.4487 3.803C12.2826 3.9551 12.0552 4.16339 12.0552 4.56411C12.0552 4.96517 12.2826 5.17372 12.4486 5.32597C12.5944 5.45973 12.6589 5.52507 12.6589 5.67156C12.6589 5.81816 12.5944 5.88346 12.4486 6.01722C12.2826 6.16948 12.0552 6.37806 12.0552 6.77909C12.0552 6.93507 12.1816 7.06152 12.3376 7.06152C12.4936 7.06152 12.62 6.93507 12.62 6.77909C12.62 6.6326 12.6845 6.56726 12.8304 6.4335C12.9964 6.28125 13.2238 6.07266 13.2238 5.67163C13.2238 5.27057 12.9964 5.06202 12.8304 4.90973Z" fill="#1A232F"/>
<path d="M11.7298 5.49925C11.5193 5.22574 11.4125 4.91114 11.4125 4.56423C11.4125 4.41639 11.4318 4.27344 11.4698 4.13934C11.5124 3.98927 11.4253 3.8331 11.2752 3.79055C11.1252 3.74807 10.969 3.83513 10.9264 3.98516C10.8742 4.16942 10.8477 4.36427 10.8477 4.56423C10.8477 5.03869 10.9938 5.46916 11.2822 5.84375C11.3377 5.91609 11.4215 5.95397 11.5061 5.95397C11.5663 5.95397 11.6269 5.93484 11.6782 5.89534C11.8018 5.80021 11.8249 5.62288 11.7298 5.49925Z" fill="#1A232F"/>
<path d="M14.1175 4.56464C14.2642 4.33049 14.3604 4.07592 14.4041 3.80534C14.429 3.65136 14.3243 3.50637 14.1703 3.48148C14.0164 3.45644 13.8713 3.56124 13.8465 3.71526C13.8069 3.96012 13.7071 4.18799 13.5498 4.39251C13.4717 4.494 13.4717 4.63537 13.5498 4.73689C13.76 5.01029 13.8666 5.3247 13.8666 5.67138C13.8666 5.91518 13.8141 6.14373 13.7106 6.3507C13.6408 6.49018 13.6973 6.65987 13.8368 6.72965C13.8774 6.74995 13.9205 6.75955 13.963 6.75955C14.0665 6.75955 14.1663 6.70235 14.2158 6.60342C14.3589 6.3173 14.4315 6.00372 14.4315 5.67138C14.4315 5.26829 14.326 4.89698 14.1175 4.56464Z" fill="#1A232F"/>
</g>
<defs>
<clipPath id="clip0_133_5417">
<rect width="19.281" height="19.281" fill="white" transform="translate(0.282227 0.760986)"/>
</clipPath>
</defs>
</svg>
