<svg width="20" height="20" viewBox="0 0 20 20" fill="none" xmlns="http://www.w3.org/2000/svg">
<path d="M17.2119 8.68533C16.9821 6.863 16.1027 5.1847 14.7352 3.95843C13.3678 2.73216 11.6039 2.0402 9.7674 2.00954L10.2909 1.49035C10.3287 1.4533 10.3589 1.40913 10.3796 1.36037C10.4004 1.31161 10.4113 1.25923 10.4117 1.20625C10.4121 1.15327 10.402 1.10073 10.382 1.05166C10.362 1.00259 10.3325 0.957958 10.2952 0.920337C10.2579 0.882717 10.2135 0.852849 10.1646 0.832456C10.1157 0.812063 10.0633 0.801547 10.0103 0.801514C9.95729 0.80148 9.90482 0.81193 9.85589 0.832262C9.80697 0.852593 9.76254 0.882404 9.72519 0.919978L8.45283 2.18202C8.41537 2.21915 8.38559 2.26331 8.3652 2.31195C8.34481 2.3606 8.3342 2.41279 8.33399 2.46553C8.33377 2.51828 8.34395 2.57055 8.36394 2.61937C8.38393 2.66818 8.41334 2.71257 8.45049 2.75002L9.72281 4.03284C9.75986 4.07072 9.80403 4.1009 9.85279 4.12164C9.90155 4.14238 9.95393 4.15326 10.0069 4.15367C10.0599 4.15407 10.1124 4.14399 10.1615 4.124C10.2106 4.10402 10.2552 4.07452 10.2928 4.03721C10.3304 3.9999 10.3603 3.95551 10.3807 3.90661C10.4011 3.85771 10.4116 3.80525 10.4116 3.75227C10.4117 3.69928 10.4012 3.64682 10.3809 3.59789C10.3606 3.54896 10.3308 3.50454 10.2932 3.46718L9.64441 2.81291C11.0589 2.81389 12.4381 3.25408 13.5917 4.07266C14.7452 4.89125 15.6161 6.04783 16.084 7.38265C16.552 8.71748 16.5939 10.1647 16.204 11.5243C15.8141 12.884 15.0116 14.089 13.9073 14.973C13.8242 15.0396 13.7709 15.1366 13.7593 15.2425C13.7535 15.2949 13.7581 15.348 13.7729 15.3986C13.7876 15.4493 13.8121 15.4965 13.8451 15.5377C13.8781 15.5788 13.9189 15.6131 13.9652 15.6385C14.0114 15.6639 14.0622 15.68 14.1146 15.6857C14.2205 15.6974 14.3267 15.6665 14.4098 15.5999C16.4991 13.9244 17.5467 11.3396 17.2119 8.68533Z" fill="#00C965"/>
<path d="M9.55836 15.2483C9.52132 15.2104 9.47715 15.1803 9.42839 15.1595C9.37963 15.1388 9.32725 15.1279 9.27427 15.1275C9.22128 15.1271 9.16874 15.1372 9.11967 15.1572C9.0706 15.1771 9.02597 15.2066 8.98835 15.244C8.95073 15.2813 8.92087 15.3256 8.90047 15.3745C8.88008 15.4235 8.86956 15.4759 8.86953 15.5289C8.8695 15.5819 8.87995 15.6343 8.90028 15.6833C8.92061 15.7322 8.95042 15.7766 8.98799 15.814L9.63677 16.468C8.22245 16.4671 6.8433 16.0271 5.68981 15.2087C4.53632 14.3903 3.66541 13.2339 3.19734 11.8993C2.72928 10.5647 2.68717 9.11764 3.07682 7.75805C3.46648 6.39847 4.26868 5.19341 5.37262 4.30932C5.45572 4.24264 5.50893 4.14567 5.52053 4.03975C5.53214 3.93384 5.5012 3.82765 5.43451 3.74455C5.36782 3.66144 5.27086 3.60824 5.16494 3.59663C5.05902 3.58502 4.95283 3.61597 4.86973 3.68265C2.78143 5.35826 1.73446 7.94263 2.06928 10.5958C2.29906 12.4182 3.17843 14.0965 4.54597 15.3228C5.91351 16.549 7.67745 17.2409 9.514 17.2714L8.99033 17.7908C8.95245 17.8279 8.92227 17.8721 8.90153 17.9208C8.8808 17.9696 8.86991 18.022 8.86951 18.0749C8.8691 18.1279 8.87918 18.1805 8.89917 18.2295C8.91916 18.2786 8.94865 18.3232 8.98596 18.3609C9.02327 18.3985 9.06766 18.4283 9.11656 18.4487C9.16546 18.4691 9.21792 18.4796 9.2709 18.4797C9.32389 18.4797 9.37636 18.4693 9.42528 18.4489C9.47421 18.4286 9.51864 18.3988 9.55599 18.3612L10.8283 17.0991C10.8658 17.0619 10.8956 17.0178 10.9159 16.9691C10.9363 16.9205 10.947 16.8683 10.9472 16.8156C10.9474 16.7628 10.9372 16.7105 10.9172 16.6617C10.8972 16.6129 10.8678 16.5685 10.8307 16.5311L9.55836 15.2483Z" fill="#00C965"/>
<path d="M9.95965 9.32281C9.90256 9.30093 9.84905 9.28074 9.80295 9.26045C9.75234 9.23808 9.69175 9.21484 9.62487 9.18946C9.24452 9.045 9.03823 8.93086 9.03823 8.74189C9.03823 8.65844 9.12729 8.5289 9.29731 8.44277C9.41782 8.38188 9.85277 8.21505 10.4071 8.62244C10.4495 8.65408 10.4978 8.677 10.5492 8.6899C10.6006 8.70279 10.654 8.7054 10.7064 8.69758C10.7587 8.68975 10.8091 8.67164 10.8544 8.64429C10.8998 8.61695 10.9393 8.5809 10.9706 8.53823C11.002 8.49556 11.0246 8.44711 11.0372 8.39566C11.0498 8.34422 11.052 8.29079 11.0439 8.23847C11.0357 8.18614 11.0173 8.13594 10.9897 8.09076C10.962 8.04558 10.9257 8.00631 10.8829 7.97521C10.6334 7.78918 10.3467 7.65915 10.0424 7.594V7.23033C10.0414 7.12447 9.99862 7.0233 9.9234 6.9488C9.84819 6.87431 9.7466 6.83252 9.64074 6.83252C9.53487 6.83252 9.43329 6.87431 9.35807 6.9488C9.28285 7.0233 9.24008 7.12447 9.23906 7.23033V7.6129C9.13404 7.64019 9.03206 7.67804 8.93467 7.72587C8.50295 7.94429 8.23486 8.3336 8.23486 8.74186C8.23486 9.52093 8.98099 9.80434 9.33972 9.94055C9.39169 9.96017 9.43917 9.97802 9.4786 9.99546C9.53607 10.0208 9.60216 10.0463 9.67295 10.0733C10.0674 10.224 10.2433 10.3234 10.2433 10.5139C10.2433 10.5973 10.1543 10.7269 9.98424 10.8129C9.86373 10.8737 9.42897 11.0408 8.87449 10.6332C8.78865 10.5701 8.68127 10.5437 8.57596 10.5598C8.47065 10.5758 8.37604 10.6331 8.31295 10.7189C8.24985 10.8048 8.22344 10.9121 8.23951 11.0175C8.25559 11.1228 8.31284 11.2174 8.39868 11.2805C8.64802 11.4673 8.93467 11.5982 9.23913 11.6644V12.0506C9.24016 12.1564 9.28293 12.2576 9.35815 12.3321C9.43337 12.4066 9.53495 12.4484 9.64081 12.4484C9.74668 12.4484 9.84826 12.4066 9.92348 12.3321C9.9987 12.2576 10.0415 12.1564 10.0425 12.0506V11.6444C10.1476 11.6166 10.2496 11.5782 10.3469 11.5298C10.7786 11.3114 11.0467 10.9222 11.0467 10.514C11.0466 9.73814 10.3395 9.46794 9.95965 9.32281Z" fill="#00C965"/>
<path d="M9.64072 5.22192C8.76681 5.22192 7.91253 5.48107 7.1859 5.96658C6.45928 6.4521 5.89294 7.14218 5.55851 7.94957C5.22408 8.75695 5.13658 9.64537 5.30707 10.5025C5.47756 11.3596 5.89839 12.1469 6.51633 12.7649C7.13428 13.3828 7.92159 13.8036 8.7787 13.9741C9.63582 14.1446 10.5242 14.0571 11.3316 13.7227C12.139 13.3883 12.8291 12.8219 13.3146 12.0953C13.8001 11.3687 14.0593 10.5144 14.0593 9.64047C14.0579 8.46901 13.592 7.3459 12.7636 6.51755C11.9353 5.6892 10.8122 5.22325 9.64072 5.22192ZM9.64072 13.2557C8.9257 13.2557 8.22674 13.0436 7.63223 12.6464C7.03771 12.2491 6.57435 11.6845 6.30072 11.0239C6.0271 10.3634 5.9555 9.63646 6.095 8.93519C6.23449 8.23391 6.5788 7.58974 7.0844 7.08415C7.58999 6.57856 8.23415 6.23424 8.93543 6.09475C9.63671 5.95526 10.3636 6.02685 11.0242 6.30048C11.6848 6.5741 12.2494 7.03747 12.6466 7.63198C13.0439 8.2265 13.2559 8.92546 13.2559 9.64047C13.2548 10.5989 12.8735 11.5178 12.1958 12.1956C11.5181 12.8733 10.5992 13.2545 9.64072 13.2557Z" fill="#00C965"/>
</svg>
