<svg width="20" height="20" viewBox="0 0 20 20" fill="none" xmlns="http://www.w3.org/2000/svg">
<path d="M0.674805 0.836127V3.20557" stroke="#1A232F" stroke-miterlimit="10"/>
<path d="M0.674805 3.99531V6.36475" stroke="#1A232F" stroke-miterlimit="10"/>
<path d="M0.674805 7.37739V9.74683" stroke="#1A232F" stroke-miterlimit="10"/>
<path d="M19.5628 0.926758H17.1934" stroke="#1A232F" stroke-miterlimit="10"/>
<path d="M16.179 0.926758H13.8096" stroke="#1A232F" stroke-miterlimit="10"/>
<path d="M12.7962 0.927002H10.4268" stroke="#1A232F" stroke-miterlimit="10"/>
<path d="M9.41436 0.926758H7.04492" stroke="#1A232F" stroke-miterlimit="10"/>
<path d="M6.03057 0.926758H3.66113" stroke="#1A232F" stroke-miterlimit="10"/>
<path d="M2.64971 0.927002H0.280273" stroke="#1A232F" stroke-miterlimit="10"/>
<path d="M19.1548 0.835639V3.20508" stroke="#1A232F" stroke-miterlimit="10"/>
<path d="M19.1548 3.42817V5.79761" stroke="#1A232F" stroke-miterlimit="10"/>
<path d="M19.1548 6.81049V9.17993" stroke="#1A232F" stroke-miterlimit="10"/>
<path d="M19.1548 10.1931V12.5625" stroke="#1A232F" stroke-miterlimit="10"/>
<path d="M19.1548 13.5751V15.9446" stroke="#1A232F" stroke-miterlimit="10"/>
<path d="M19.1548 16.9575V19.3269" stroke="#1A232F" stroke-miterlimit="10"/>
<path d="M19.5628 18.9316H17.1934" stroke="#1A232F" stroke-miterlimit="10"/>
<path d="M16.179 18.9324H13.8096" stroke="#1A232F" stroke-miterlimit="10"/>
<path d="M12.7962 18.9324H10.4268" stroke="#1A232F" stroke-miterlimit="10"/>
<path d="M8.5329 18.9321H0.834961V11.2342H8.5329V18.9321Z" stroke="#1A232F" stroke-miterlimit="10"/>
<path d="M13.6069 4.10849H15.4989V6.00049" stroke="#1A232F" stroke-miterlimit="10"/>
<path d="M12.514 8.98608H10.6221V7.09412" stroke="#1A232F" stroke-miterlimit="10"/>
<path d="M15.4995 4.10871L10.6221 8.98608" stroke="#1A232F" stroke-miterlimit="10"/>
</svg>
