<svg width="20" height="20" viewBox="0 0 20 20" fill="none" xmlns="http://www.w3.org/2000/svg">
<path d="M13.4655 3.49014C15.024 3.49014 16.2773 4.75144 16.2773 6.30196C16.2773 7.82033 15.0722 9.05753 13.5699 9.11377C13.5005 9.10573 13.4304 9.10573 13.361 9.11377M15.016 16.3441C15.5944 16.2236 16.1407 15.9907 16.5906 15.6452C17.8439 14.7053 17.8439 13.1547 16.5906 12.2148C16.1488 11.8774 15.6105 11.6524 15.0401 11.5239M7.64102 9.00933C7.56068 9.00129 7.46427 9.00129 7.3759 9.00933C6.45379 8.97802 5.58007 8.58903 4.93977 7.92474C4.29947 7.26045 3.94287 6.37302 3.94549 5.45038C3.94549 3.48211 5.53617 1.88339 7.51248 1.88339C8.45743 1.86635 9.37046 2.22538 10.0507 2.88152C10.7309 3.53765 11.1227 4.43713 11.1397 5.38209C11.1568 6.32705 10.7977 7.24008 10.1416 7.92031C9.48546 8.60055 8.58597 8.99228 7.64102 9.00933ZM3.62414 11.9738C1.67997 13.2753 1.67997 15.3962 3.62414 16.6896C5.83342 18.1678 9.45664 18.1678 11.6659 16.6896C13.6101 15.3881 13.6101 13.2672 11.6659 11.9738C9.46468 10.5036 5.84146 10.5036 3.62414 11.9738Z" stroke="#1A232F" stroke-linecap="round" stroke-linejoin="round"/>
</svg>
