<svg width="20" height="15" viewBox="0 0 20 15" fill="none" xmlns="http://www.w3.org/2000/svg">
<path d="M18.0553 6.76603C18.8741 6.83785 19.3482 7.355 19.3482 8.15227C19.3482 8.90645 19.3482 9.65344 19.3482 10.4076C19.3482 10.4794 19.3482 10.5513 19.3482 10.6446C19.4703 10.6446 19.578 10.6375 19.6858 10.6446C19.8653 10.6518 19.9874 10.7739 19.9946 10.9535C20.0018 11.3916 20.0018 11.8298 19.9946 12.2607C19.9946 12.4547 19.8653 12.5624 19.6714 12.5768C19.5708 12.5839 19.4703 12.5768 19.3482 12.5768C19.3482 12.979 19.3482 13.3669 19.3482 13.7547C19.3482 14.0923 19.2548 14.1857 18.9244 14.1929C18.6658 14.1929 18.4144 14.1929 18.1559 14.1929C17.8614 14.1929 17.7824 14.1282 17.7177 13.8337C17.6387 13.4818 17.5597 13.1298 17.5094 12.7707C17.4807 12.5983 17.4089 12.5768 17.258 12.5768C16.7193 12.5839 16.1806 12.5768 15.6491 12.5768C11.3467 12.5768 7.05153 12.5768 2.74915 12.5768C2.58395 12.5768 2.50494 12.6055 2.47621 12.7922C2.41875 13.1657 2.33255 13.5249 2.25355 13.8984C2.21045 14.0995 2.09553 14.1929 1.88723 14.1929C1.59275 14.1929 1.29826 14.1929 1.00377 14.1929C0.759562 14.1929 0.64464 14.0779 0.64464 13.8337C0.64464 13.4243 0.64464 13.0149 0.64464 12.5768C0.529718 12.5768 0.421979 12.5839 0.321422 12.5768C0.127491 12.5696 0.00538696 12.4547 0.00538696 12.2607C-0.00179565 11.8298 -0.00179565 11.3988 0.00538696 10.9679C0.00538696 10.7667 0.127491 10.6518 0.335787 10.6446C0.429161 10.6446 0.522535 10.6446 0.651823 10.6446C0.651823 10.5656 0.651823 10.4938 0.651823 10.4292C0.651823 9.67499 0.67337 8.92081 0.64464 8.17382C0.615909 7.49147 1.09714 6.8163 1.94469 6.76603C1.94469 6.68702 1.94469 6.60801 1.94469 6.529C1.94469 4.80517 1.94469 3.07416 1.94469 1.35033C1.94469 0.545879 2.49057 0 3.29503 0C7.7698 0 12.2446 0 16.7193 0C17.5238 0 18.0697 0.545879 18.0697 1.35033C18.0697 3.07416 18.0697 4.80517 18.0697 6.529C18.0553 6.60801 18.0553 6.67983 18.0553 6.76603ZM17.4089 6.76603C17.4089 6.68702 17.4089 6.62237 17.4089 6.55055C17.4089 4.84108 17.4089 3.12444 17.4089 1.41498C17.4089 0.897827 17.1575 0.646436 16.6403 0.646436C12.2087 0.646436 7.7698 0.646436 3.33812 0.646436C2.82097 0.646436 2.56958 0.897827 2.56958 1.40779C2.56958 3.12444 2.56958 4.84827 2.56958 6.56491C2.56958 6.62956 2.57676 6.6942 2.57676 6.75884C2.79942 6.75884 3.00054 6.75884 3.21602 6.75884C3.21602 6.34225 3.21602 5.94003 3.21602 5.5378C3.21602 4.74771 3.7619 4.19465 4.55917 4.19465C5.80176 4.19465 7.04435 4.19465 8.28694 4.19465C9.13449 4.19465 9.66601 4.72616 9.66601 5.57371C9.66601 5.96876 9.66601 6.3638 9.66601 6.75884C9.89585 6.75884 10.097 6.75884 10.3124 6.75884C10.3124 6.34225 10.3124 5.94003 10.3124 5.5378C10.3124 4.74053 10.8583 4.19465 11.6484 4.19465C12.9054 4.19465 14.1623 4.19465 15.4193 4.19465C16.2166 4.19465 16.7624 4.74053 16.7624 5.53062C16.7624 5.94003 16.7624 6.34943 16.7624 6.76603C16.9851 6.76603 17.179 6.76603 17.4089 6.76603ZM18.7017 10.6375C18.7017 9.81864 18.7017 9.02137 18.7017 8.2241C18.7017 7.65667 18.4647 7.41964 17.8901 7.41964C12.6252 7.41964 7.36039 7.41964 2.09553 7.41964C2.04525 7.41964 1.98779 7.41964 1.93751 7.41964C1.5712 7.43401 1.29826 7.69977 1.29108 8.0589C1.28389 8.90645 1.29108 9.754 1.29108 10.5944C1.29108 10.6015 1.30544 10.6159 1.31262 10.6303C7.09463 10.6375 12.8838 10.6375 18.7017 10.6375ZM0.64464 11.9231C6.88633 11.9231 13.1065 11.9231 19.3266 11.9231C19.3266 11.7077 19.3266 11.4994 19.3266 11.2983C13.0921 11.2983 6.87197 11.2983 0.64464 11.2983C0.64464 11.5066 0.64464 11.7077 0.64464 11.9231ZM9.01957 6.76603C9.01957 6.31352 9.03394 5.87538 9.01239 5.44442C8.99802 5.09966 8.72508 4.84108 8.37314 4.84108C7.08745 4.8339 5.79458 4.8339 4.50889 4.84108C4.1713 4.84108 3.89118 5.07093 3.86963 5.40133C3.8409 5.85383 3.86245 6.30634 3.86245 6.77321C5.58628 6.76603 7.28856 6.76603 9.01957 6.76603ZM10.9589 6.75884C12.6755 6.75884 14.3922 6.75884 16.116 6.75884C16.116 6.31352 16.1304 5.87538 16.1088 5.43006C16.0945 5.08529 15.8143 4.84108 15.4624 4.84108C14.1839 4.8339 12.8982 4.8339 11.6197 4.84108C11.2462 4.84108 10.9732 5.12121 10.9661 5.4947C10.9517 5.91129 10.9589 6.32789 10.9589 6.75884ZM1.29108 13.5464C1.38445 13.5464 1.46346 13.5608 1.54247 13.5392C1.59275 13.5249 1.67175 13.4818 1.67894 13.4387C1.74358 13.1586 1.79386 12.8784 1.85132 12.5839C1.66457 12.5839 1.48501 12.5839 1.29826 12.5839C1.29108 12.9 1.29108 13.2088 1.29108 13.5464ZM18.1271 12.5911C18.1774 12.8497 18.2492 13.1011 18.278 13.3525C18.2995 13.5177 18.3642 13.5751 18.5222 13.5536C18.5725 13.5464 18.6227 13.5536 18.6874 13.5536C18.6874 13.2232 18.6874 12.9143 18.6874 12.5983C18.5006 12.5911 18.3211 12.5911 18.1271 12.5911Z" fill="#1A232F"/>
</svg>
