<svg width="17" height="18" viewBox="0 0 17 18" fill="none" xmlns="http://www.w3.org/2000/svg">
<path d="M5.47759 18C4.89457 17.9067 4.33486 17.724 3.79071 17.4947C3.52252 17.382 3.25044 17.277 2.97447 17.1837C2.29816 16.9583 1.6374 17.0438 0.988301 17.2887C0.844488 17.3431 0.708449 17.4092 0.564636 17.4558C0.331426 17.5374 0.102103 17.4403 0.024366 17.2382C-0.0494838 17.0438 0.0476871 16.8495 0.273123 16.7445C0.875583 16.4725 1.49748 16.2781 2.16212 16.282C2.72572 16.2859 3.25433 16.4491 3.77516 16.6512C4.23769 16.83 4.69634 17.0283 5.17442 17.1527C6.0062 17.3625 6.80689 17.176 7.58814 16.8689C8.0157 16.7018 8.44325 16.5191 8.88635 16.3947C9.73368 16.1537 10.5499 16.3248 11.3506 16.6474C11.817 16.8339 12.2834 17.0322 12.7654 17.1527C13.57 17.3587 14.3551 17.1876 15.1131 16.8883C15.2063 16.8534 15.2957 16.8145 15.389 16.7756C15.6261 16.6823 15.8243 16.764 15.9215 16.9894C15.9993 17.1721 15.906 17.3781 15.6883 17.4675C15.4395 17.5685 15.1908 17.6735 14.9343 17.7434C14.5767 17.8445 14.2074 17.9145 13.8459 17.9961C13.5894 17.9961 13.329 17.9961 13.0725 17.9961C12.9831 17.9805 12.8898 17.9728 12.8004 17.9417C12.2368 17.7551 11.6615 17.5996 11.1174 17.3664C10.2001 16.9739 9.30613 16.9544 8.38883 17.3509C7.94573 17.5413 7.4832 17.6929 7.02455 17.8367C6.7758 17.9145 6.51149 17.9417 6.25496 17.9961C5.99066 18 5.73413 18 5.47759 18Z" fill="#1A232F"/>
<path d="M4.70807 4.25616C6.89636 4.25616 9.07687 4.25616 11.2846 4.25616C11.2846 4.19008 11.2846 4.13178 11.2846 4.06959C11.2924 3.56041 11.2768 3.05124 11.3118 2.54206C11.3973 1.27884 12.4118 0.229399 13.6594 0.0428307C15.1287 -0.178719 16.5202 0.800763 16.8078 2.24666C16.8428 2.41769 16.8583 2.59259 16.8622 2.7675C16.8661 2.98905 16.7223 3.14452 16.5202 3.16396C16.3297 3.18339 16.147 3.04347 16.1276 2.8258C16.0887 2.43323 16.0226 2.05232 15.8089 1.71028C15.3463 0.967897 14.4524 0.606421 13.6011 0.824084C12.7538 1.04175 12.1319 1.78802 12.0814 2.65478C12.0736 2.77916 12.0697 2.89965 12.0697 3.02403C12.0697 6.03244 12.0697 9.04085 12.0697 12.0531C12.0697 12.1348 12.0697 12.2164 12.0581 12.298C12.0309 12.5079 11.8793 12.6439 11.6849 12.6401C11.4828 12.6362 11.3273 12.4807 11.3196 12.263C11.3118 11.9948 11.3157 11.7228 11.3157 11.4546C11.3157 11.4196 11.3118 11.3846 11.3079 11.3419C9.10797 11.3419 6.91579 11.3419 4.69641 11.3419C4.69641 11.5206 4.7003 11.6956 4.69641 11.8666C4.69252 12.0259 4.69641 12.1814 4.67309 12.3369C4.64588 12.5273 4.48263 12.6439 4.29995 12.6323C4.12504 12.6206 3.9618 12.4768 3.94236 12.3019C3.93848 12.263 3.93848 12.2203 3.93848 12.1775C3.93848 9.06417 3.93848 5.94693 3.93848 2.83358C3.93848 1.58979 4.67309 0.559779 5.82748 0.151662C7.48716 -0.431363 9.32174 0.734687 9.48887 2.48376C9.49665 2.56539 9.50831 2.64701 9.5122 2.72863C9.51997 2.96962 9.3645 3.1523 9.15072 3.16396C8.94861 3.17562 8.78147 3.01237 8.75426 2.77527C8.73483 2.60814 8.72706 2.43712 8.6843 2.27387C8.45109 1.36047 7.58044 0.707479 6.67481 0.758008C5.64868 0.816311 4.8169 1.5276 4.71973 2.50708C4.66143 3.08233 4.70807 3.66147 4.70807 4.25616ZM11.304 9.22353C9.09242 9.22353 6.90024 9.22353 4.7003 9.22353C4.7003 9.66274 4.7003 10.0903 4.7003 10.5295C6.90802 10.5295 9.10408 10.5295 11.304 10.5295C11.304 10.0903 11.304 9.66274 11.304 9.22353ZM11.304 5.03741C9.0963 5.03741 6.90024 5.03741 4.7003 5.03741C4.7003 5.47274 4.7003 5.8964 4.7003 6.32784C6.90802 6.32784 9.10408 6.32784 11.304 6.32784C11.304 5.89251 11.304 5.47274 11.304 5.03741ZM4.70807 7.14796C4.70807 7.59495 4.70807 8.0225 4.70807 8.44616C6.91579 8.44616 9.10796 8.44616 11.2963 8.44616C11.2963 8.00306 11.2963 7.57551 11.2963 7.14796C9.09242 7.14796 6.90802 7.14796 4.70807 7.14796Z" fill="#1A232F"/>
<path d="M13.508 15.1277C12.8589 15.1393 12.2992 14.9877 11.7512 14.774C11.3703 14.6263 10.9932 14.463 10.6084 14.3309C9.91269 14.0938 9.22861 14.1715 8.5523 14.4241C8.00037 14.6263 7.45232 14.8517 6.88485 15.0033C5.96367 15.252 5.05415 15.1393 4.17572 14.7778C3.80259 14.6263 3.42945 14.4708 3.05243 14.3386C2.34502 14.0938 1.64928 14.1637 0.961311 14.4319C0.813611 14.4902 0.669799 14.5524 0.518212 14.5991C0.32387 14.6612 0.121755 14.5718 0.0479053 14.3969C-0.0220577 14.2259 0.0362447 14.016 0.211152 13.9266C0.965198 13.5496 1.75811 13.3358 2.61322 13.4485C3.20013 13.5263 3.73651 13.7556 4.27289 13.9849C4.92199 14.2609 5.58664 14.4358 6.30182 14.3464C6.89262 14.2726 7.44844 14.0782 7.98871 13.8372C8.45124 13.6312 8.92543 13.4796 9.43072 13.4291C10.0993 13.363 10.7289 13.5185 11.343 13.7673C11.7123 13.915 12.0777 14.0704 12.4508 14.1987C13.2282 14.4591 14.0055 14.4008 14.7712 14.1404C14.9928 14.0666 15.2066 13.9772 15.4281 13.8955C15.6224 13.8217 15.8129 13.8916 15.9062 14.0666C15.9956 14.2337 15.9412 14.4552 15.7585 14.5524C15.5486 14.6612 15.3232 14.7506 15.0977 14.8284C14.5652 15.0111 14.0211 15.1354 13.508 15.1277Z" fill="#1A232F"/>
</svg>
