<svg width="24" height="24" viewBox="0 0 24 24" fill="none" xmlns="http://www.w3.org/2000/svg">
<path d="M12.199 11.8L10.789 13.21C10.009 13.99 10.009 15.26 10.789 16.04C11.569 16.82 12.839 16.82 13.619 16.04L15.839 13.82C16.5881 13.0686 17.0088 12.0509 17.0088 10.99C17.0088 9.92896 16.5881 8.91126 15.839 8.15995C15.0877 7.4108 14.07 6.99011 13.009 6.99011C11.948 6.99011 10.9303 7.4108 10.179 8.15995L7.75898 10.58C7.44035 10.8983 7.18758 11.2763 7.01513 11.6924C6.84267 12.1085 6.75391 12.5545 6.75391 13.005C6.75391 13.4554 6.84267 13.9014 7.01513 14.3175C7.18758 14.7336 7.44035 15.1116 7.75898 15.43" stroke="#1A232F" stroke-width="1.5" stroke-linecap="round" stroke-linejoin="round"/>
<path d="M9 22H15C20 22 22 20 22 15V9C22 4 20 2 15 2H9C4 2 2 4 2 9V15C2 20 4 22 9 22Z" stroke="#1A232F" stroke-width="1.5" stroke-linecap="round" stroke-linejoin="round"/>
</svg>
