<svg width="20" height="20" viewBox="0 0 20 20" fill="none" xmlns="http://www.w3.org/2000/svg">
<g clip-path="url(#clip0_216_2265)">
<path d="M3.66624 16.4518H5.27597L3.94886 13.0013C3.77077 13.059 3.59472 13.123 3.42202 13.1932C2.94081 13.3887 2.70101 13.9423 2.88749 14.4271L3.66624 16.4518Z" fill="#00C965"/>
<path d="M6.53145 16.4518H10.1656L11.7725 12.2738C11.959 11.789 11.7192 11.2355 11.238 11.0399C9.3747 10.2826 7.32243 10.2826 5.45915 11.0399C4.97794 11.2355 4.73813 11.789 4.92458 12.2738L6.53145 16.4518Z" fill="#00C965"/>
<path d="M2.41145 16.4517L1.91254 15.1545C1.73442 15.2122 1.55837 15.2762 1.38571 15.3463C0.946607 15.5248 0.708717 16.0013 0.812076 16.4517L2.41145 16.4517Z" fill="#00C965"/>
<path d="M13.0317 16.4518L13.8104 14.4271C13.9968 13.9423 13.757 13.3887 13.2758 13.1931C13.1031 13.1229 12.9271 13.059 12.749 13.0013L11.4219 16.4518H13.0317Z" fill="#00C965"/>
<path d="M15.3129 15.3464C15.1402 15.2762 14.9641 15.2122 14.786 15.1545L14.2871 16.4517H15.8865C15.9898 16.0013 15.752 15.5249 15.3129 15.3464Z" fill="#00C965"/>
<path d="M0 17.8266C0 18.5217 0.565547 19.0873 1.2607 19.0873H16.3955C17.0907 19.0873 17.6562 18.5217 17.6562 17.8266V17.6237H0V17.8266Z" fill="#00C965"/>
<path d="M10.4531 4.63299H11.625C11.625 4.31357 11.6959 4.17975 11.8032 3.97721C11.9432 3.71271 12.1176 3.38354 12.1176 2.77291C12.1176 2.16229 11.9433 1.83307 11.8032 1.56854C11.6959 1.36592 11.625 1.23209 11.625 0.912598H10.4532C10.4532 1.52326 10.6275 1.85248 10.7676 2.11697C10.8749 2.31959 10.9457 2.45338 10.9457 2.77291C10.9457 3.09232 10.8749 3.22615 10.7676 3.42869C10.6275 3.69322 10.4531 4.0224 10.4531 4.63299Z" fill="#00C965"/>
<path d="M13.2988 4.63295H14.4707C14.4707 4.31354 14.5416 4.17971 14.6489 3.97717C14.7889 3.71268 14.9633 3.3835 14.9633 2.77291C14.9633 2.16229 14.7889 1.83307 14.6489 1.56854C14.5416 1.36596 14.4707 1.23213 14.4707 0.912598H13.2988C13.2988 1.52326 13.4732 1.85244 13.6132 2.11697C13.7205 2.31955 13.7914 2.45338 13.7914 2.77291C13.7914 3.09232 13.7205 3.22615 13.6132 3.42869C13.4732 3.69318 13.2988 4.02236 13.2988 4.63295Z" fill="#00C965"/>
<path d="M17.9919 8.23989C17.6936 8.23989 17.4107 8.30575 17.156 8.4229V6.19849H8.93457V9.31962C9.86617 9.38212 10.7913 9.59337 11.6793 9.95423C12.1998 10.1658 12.6095 10.5662 12.8328 11.0818C12.9403 11.33 12.9983 11.5914 13.0076 11.8543C13.2475 11.9288 13.4846 12.0133 13.7164 12.1075C14.237 12.3191 14.6466 12.7195 14.8699 13.2351C14.9774 13.4833 15.0354 13.7447 15.0447 14.0076C15.2846 14.0821 15.5218 14.1666 15.7536 14.2608C16.2524 14.4635 16.6489 14.84 16.8777 15.3249C17.0593 14.9177 17.156 14.4716 17.156 14.0093V13.4514C17.4107 13.5685 17.6937 13.6344 17.9919 13.6344C19.0989 13.6344 19.9996 12.7337 19.9996 11.6266V10.2477C19.9996 9.14056 19.0989 8.23989 17.9919 8.23989ZM18.8278 11.6265C18.8278 12.0875 18.4528 12.4624 17.9919 12.4624C17.531 12.4624 17.156 12.0874 17.156 11.6265V10.2476C17.156 9.78673 17.531 9.41173 17.9919 9.41173C18.4528 9.41173 18.8278 9.78673 18.8278 10.2476V11.6265Z" fill="#00C965"/>
</g>
<defs>
<clipPath id="clip0_216_2265">
<rect width="20" height="20" fill="white"/>
</clipPath>
</defs>
</svg>
