<svg width="30" height="30" viewBox="0 0 30 30" fill="none" xmlns="http://www.w3.org/2000/svg">
<path d="M10 2.5V6.25M20 2.5V6.25M4.375 11.3625H25.625M23.8375 25.1375L21.1875 22.5M23.8125 22.525L21.1625 25.175M22.5 28.75C23.8261 28.75 25.0979 28.2232 26.0355 27.2855C26.9732 26.3479 27.5 25.0761 27.5 23.75C27.5 22.4239 26.9732 21.1521 26.0355 20.2145C25.0979 19.2768 23.8261 18.75 22.5 18.75C21.1739 18.75 19.9021 19.2768 18.9645 20.2145C18.0268 21.1521 17.5 22.4239 17.5 23.75C17.5 25.0761 18.0268 26.3479 18.9645 27.2855C19.9021 28.2232 21.1739 28.75 22.5 28.75Z" stroke="#1A232F" stroke-width="2" stroke-miterlimit="10" stroke-linecap="round" stroke-linejoin="round"/>
<path d="M26.25 10.625V20.45C25.3375 19.4125 24 18.75 22.5 18.75C19.7375 18.75 17.5 20.9875 17.5 23.75C17.5 24.6875 17.7625 25.575 18.225 26.325C18.4875 26.775 18.825 27.175 19.2125 27.5H10C5.625 27.5 3.75 25 3.75 21.25V10.625C3.75 6.875 5.625 4.375 10 4.375H20C24.375 4.375 26.25 6.875 26.25 10.625Z" stroke="#1A232F" stroke-width="2" stroke-miterlimit="10" stroke-linecap="round" stroke-linejoin="round"/>
<path d="M14.9934 17.125H15.0059M10.3672 17.125H10.3797M10.3672 20.875H10.3797" stroke="#1A232F" stroke-width="2" stroke-linecap="round" stroke-linejoin="round"/>
</svg>
