<svg width="20" height="20" viewBox="0 0 20 20" fill="none" xmlns="http://www.w3.org/2000/svg">
<path d="M8.00838 8.07571C8.00838 7.31952 8.00292 6.56064 8.01112 5.80445C8.01385 5.47345 8.18881 5.23126 8.4868 5.08863C8.77931 4.94869 9.07183 4.9756 9.337 5.16129C9.59671 5.34159 9.69513 5.59993 9.69513 5.9094C9.68966 7.19304 9.69513 8.47668 9.68966 9.76032C9.68966 9.90564 9.72793 10.0106 9.83455 10.1129C10.7422 10.9982 11.6416 11.889 12.5437 12.7797C12.9073 13.1376 12.9511 13.5843 12.6668 13.9395C12.3797 14.2975 11.8685 14.3674 11.4994 14.0929C11.4256 14.0391 11.3627 13.9745 11.2971 13.9126C10.3212 12.9519 9.35067 11.9831 8.36651 11.0278C8.11227 10.7802 7.99471 10.5057 8.00018 10.1559C8.01385 9.46161 8.00565 8.76732 8.00838 8.07571C8.00565 8.07571 8.00565 8.07571 8.00838 8.07571Z" fill="#1A232F"/>
<circle cx="10" cy="10" r="9.25" stroke="#1A232F" stroke-width="1.5"/>
</svg>
