<svg width="120" height="120" viewBox="0 0 120 120" fill="none" xmlns="http://www.w3.org/2000/svg">
<g clip-path="url(#clip0_364_1701)">
<path d="M59.9962 0C48.1301 0 36.5305 3.51872 26.6641 10.1112C16.7978 16.7037 9.10794 26.0738 4.56697 37.0367C0.0259955 47.9995 -1.16213 60.0628 1.15284 71.7009C3.4678 83.339 9.18189 94.0293 17.5725 102.42C25.9631 110.811 36.6534 116.525 48.2916 118.84C59.9297 121.155 71.9929 119.966 82.9558 115.426C93.9187 110.885 103.289 103.195 109.881 93.3283C116.474 83.462 119.992 71.8624 119.992 59.9962C119.937 44.1014 113.598 28.8735 102.358 17.6341C91.119 6.39466 75.8911 0.0557439 59.9962 0V0Z" fill="#FFE470"/>
<path d="M119.991 59.9962C119.935 75.8911 113.597 91.119 102.357 102.358C91.1179 113.598 75.89 119.937 59.9951 119.992V0C75.89 0.0557439 91.1179 6.39466 102.357 17.6341C113.597 28.8735 119.935 44.1014 119.991 59.9962Z" fill="#FFD400"/>
<path d="M59.9955 14.293C50.9562 14.293 42.1199 16.9734 34.604 21.9954C27.0881 27.0174 21.2302 34.1553 17.771 42.5065C14.3118 50.8577 13.4067 60.0471 15.1702 68.9127C16.9337 77.7784 21.2865 85.922 27.6782 92.3137C34.07 98.7055 42.2136 103.058 51.0792 104.822C59.9448 106.585 69.1343 105.68 77.4855 102.221C85.8367 98.7618 92.9746 92.9039 97.9966 85.388C103.019 77.8721 105.699 69.0358 105.699 59.9965C105.677 47.8819 100.855 36.2698 92.2885 27.7035C83.7222 19.1372 72.1101 14.3149 59.9955 14.293Z" fill="#FDBF00"/>
<path d="M105.699 59.9965C105.677 72.111 100.854 83.7231 92.2881 92.2894C83.7218 100.856 72.1097 105.678 59.9951 105.7V14.293C72.1097 14.3149 83.7218 19.1372 92.2881 27.7035C100.854 36.2698 105.677 47.8819 105.699 59.9965Z" fill="#FF9F00"/>
<path d="M35.3556 59.9971C35.3556 60.6918 35.1495 61.371 34.7636 61.9487C34.3776 62.5264 33.8289 62.9766 33.1871 63.2425C32.5452 63.5084 31.8389 63.5779 31.1575 63.4424C30.4761 63.3068 29.8502 62.9723 29.3589 62.481C28.8677 61.9898 28.5331 61.3638 28.3976 60.6824C28.262 60.001 28.3316 59.2947 28.5975 58.6528C28.8633 58.011 29.3136 57.4624 29.8912 57.0764C30.4689 56.6904 31.1481 56.4844 31.8428 56.4844C32.7744 56.4844 33.6679 56.8545 34.3267 57.5133C34.9855 58.172 35.3556 59.0655 35.3556 59.9971Z" fill="#FFE470"/>
<path d="M91.6016 59.9971C91.6016 60.6918 91.3955 61.371 91.0096 61.9487C90.6236 62.5264 90.075 62.9766 89.4331 63.2425C88.7913 63.5084 88.0849 63.5779 87.4035 63.4424C86.7221 63.3068 86.0963 62.9723 85.605 62.481C85.1138 61.9898 84.7792 61.3638 84.6437 60.6824C84.5081 60.001 84.5777 59.2947 84.8436 58.6528C85.1094 58.011 85.5597 57.4624 86.1373 57.0764C86.715 56.6904 87.3941 56.4844 88.0889 56.4844C89.0205 56.4844 89.9139 56.8545 90.5727 57.5133C91.2315 58.172 91.6016 59.0655 91.6016 59.9971Z" fill="#FFD400"/>
<path d="M62.1881 73.7821C59.6564 73.8444 57.1528 73.24 54.9284 72.0295C52.8959 70.8813 51.246 69.1605 50.1843 67.0814C49.0172 64.7614 48.4337 62.1917 48.4846 59.5951C48.4327 56.9741 49.0241 54.3803 50.207 52.0408C51.3018 49.9131 52.9888 48.1475 55.0644 46.9568C57.3073 45.702 59.8453 45.0708 62.4147 45.1287C64.3121 45.124 66.1959 45.4486 67.9822 46.088C69.6115 46.6315 71.1055 47.5176 72.3637 48.6867L70.6111 52.7585C68.4685 50.8676 65.7251 49.797 62.868 49.7368C61.7103 49.6755 60.5537 49.8743 59.483 50.3188C58.4123 50.7633 57.4549 51.4421 56.681 52.3052C55.0649 54.3675 54.2589 56.9495 54.4147 59.5649C54.2487 62.1369 55.0337 64.6803 56.6206 66.7113C57.4057 67.5651 58.3708 68.2337 59.446 68.6688C60.5213 69.1039 61.6798 69.2945 62.8378 69.2268C65.6949 69.1667 68.4382 68.0961 70.5809 66.2051L72.3335 70.3298C71.014 71.4866 69.4714 72.3607 67.8009 72.8982C65.9916 73.5009 64.095 73.7995 62.1881 73.7821Z" fill="#FFE470"/>
</g>
<defs>
<clipPath id="clip0_364_1701">
<rect width="120" height="120" fill="white"/>
</clipPath>
</defs>
</svg>
