<svg width="30" height="24" viewBox="0 0 30 24" fill="none" xmlns="http://www.w3.org/2000/svg">
<path d="M25.4 3H3.8C3.32261 3 2.86477 3.18964 2.52721 3.52721C2.18964 3.86477 2 4.32261 2 4.8V19.2C2 19.6774 2.18964 20.1352 2.52721 20.4728C2.86477 20.8104 3.32261 21 3.8 21H25.4C25.8774 21 26.3352 20.8104 26.6728 20.4728C27.0104 20.1352 27.2 19.6774 27.2 19.2V4.8C27.2 4.32261 27.0104 3.86477 26.6728 3.52721C26.3352 3.18964 25.8774 3 25.4 3ZM23.42 4.8L14.6 10.902L5.78 4.8H23.42ZM3.8 19.2V5.619L14.087 12.738C14.2377 12.8425 14.4166 12.8985 14.6 12.8985C14.7834 12.8985 14.9623 12.8425 15.113 12.738L25.4 5.619V19.2H3.8Z" fill="#1A232F"/>
</svg>
