<svg width="18" height="19" viewBox="0 0 18 19" fill="none" xmlns="http://www.w3.org/2000/svg">
<g opacity="0.8">
<path d="M12.2214 9.06358C12.2214 11.0104 10.6893 12.5885 8.79918 12.5885C6.9091 12.5885 5.37695 11.0104 5.37695 9.06358C5.37695 7.11681 6.9091 5.5387 8.79918 5.5387C10.6893 5.5387 12.2214 7.11681 12.2214 9.06358Z" fill="#00C965"/>
<path d="M17.1678 2.54338C16.9959 2.06332 16.7215 1.62879 16.3649 1.27213C16.0186 0.904889 15.597 0.622256 15.1307 0.445098C14.7525 0.293794 14.1843 0.113699 13.1377 0.0646348C12.0056 0.011458 11.6662 0 8.80015 0C5.93379 0 5.59436 0.0111642 4.46254 0.0643409C3.41601 0.113699 2.84753 0.293794 2.46959 0.445098C2.00322 0.622256 1.58135 0.904889 1.23537 1.27213C0.878819 1.62879 0.604418 2.06303 0.432134 2.54338C0.285237 2.93295 0.110387 3.51849 0.0627522 4.59641C0.0111243 5.76219 0 6.1118 0 9.06415C0 12.0162 0.0111243 12.3658 0.0627522 13.5319C0.110387 14.6098 0.285237 15.195 0.432134 15.5846C0.604418 16.065 0.878533 16.4992 1.23508 16.8559C1.58135 17.2231 2.00294 17.5058 2.4693 17.6829C2.84753 17.8345 3.41601 18.0146 4.46254 18.0636C5.59436 18.1168 5.93351 18.128 8.79985 18.128C11.6665 18.128 12.0059 18.1168 13.1374 18.0636C14.184 18.0146 14.7525 17.8345 15.1307 17.6829C16.0668 17.311 16.8068 16.5488 17.1678 15.5846C17.3147 15.195 17.4896 14.6098 17.5375 13.5319C17.5891 12.3658 17.6 12.0162 17.6 9.06415C17.6 6.1118 17.5891 5.76219 17.5375 4.59641C17.4899 3.51849 17.315 2.93295 17.1678 2.54338ZM8.80015 14.7412C5.7558 14.7412 3.28793 12.1995 3.28793 9.06385C3.28793 5.92818 5.7558 3.38657 8.80015 3.38657C11.8442 3.38657 14.3121 5.92818 14.3121 9.06385C14.3121 12.1995 11.8442 14.7412 8.80015 14.7412ZM14.53 4.48889C13.8186 4.48889 13.2419 3.89483 13.2419 3.16211C13.2419 2.42939 13.8186 1.83533 14.53 1.83533C15.2414 1.83533 15.8181 2.42939 15.8181 3.16211C15.8179 3.89483 15.2414 4.48889 14.53 4.48889Z" fill="#00C965"/>
</g>
</svg>
