<svg width="20" height="20" viewBox="0 0 20 20" fill="none" xmlns="http://www.w3.org/2000/svg">
<path d="M10.0009 14.4584C10.3612 14.4584 10.7067 14.3153 10.9614 14.0605C11.2161 13.8058 11.3592 13.4603 11.3592 13.1C11.3592 12.7398 11.2161 12.3943 10.9614 12.1395C10.7067 11.8848 10.3612 11.7417 10.0009 11.7417C9.64066 11.7417 9.29516 11.8848 9.04042 12.1395C8.78569 12.3943 8.64258 12.7398 8.64258 13.1C8.64258 13.4603 8.78569 13.8058 9.04042 14.0605C9.29516 14.3153 9.64066 14.4584 10.0009 14.4584Z" fill="#1A232F"/>
<path d="M15.2337 7.94175V6.90008C15.2337 4.65008 14.692 1.66675 10.0003 1.66675C5.30866 1.66675 4.76699 4.65008 4.76699 6.90008V7.94175C2.43366 8.23341 1.66699 9.41675 1.66699 12.3251V13.8751C1.66699 17.2917 2.70866 18.3334 6.12533 18.3334H13.8753C17.292 18.3334 18.3337 17.2917 18.3337 13.8751V12.3251C18.3337 9.41675 17.567 8.23341 15.2337 7.94175ZM10.0003 15.6167C8.60866 15.6167 7.48366 14.4834 7.48366 13.1001C7.48366 11.7084 8.61699 10.5834 10.0003 10.5834C10.6671 10.5856 11.306 10.8515 11.7775 11.323C12.2489 11.7944 12.5148 12.4333 12.517 13.1001C12.517 14.4917 11.392 15.6167 10.0003 15.6167ZM6.12533 7.86675H5.93366V6.90008C5.93366 4.45841 6.62533 2.83341 10.0003 2.83341C13.3753 2.83341 14.067 4.45841 14.067 6.90008V7.87508H6.12533V7.86675Z" fill="#1A232F"/>
</svg>
