<svg width="30" height="30" viewBox="0 0 30 30" fill="none" xmlns="http://www.w3.org/2000/svg">
<path d="M15.025 3.63751C10.8875 3.63751 7.52499 7.00001 7.52499 11.1375V14.75C7.52499 15.5125 7.19999 16.675 6.81249 17.325L5.37499 19.7125C4.48749 21.1875 5.09999 22.825 6.72499 23.375C12.1125 25.175 17.925 25.175 23.3125 23.375C24.825 22.875 25.4875 21.0875 24.6625 19.7125L23.225 17.325C22.85 16.675 22.525 15.5125 22.525 14.75V11.1375C22.525 7.01251 19.15 3.63751 15.025 3.63751Z" stroke="#1A232F" stroke-width="1.5" stroke-miterlimit="10" stroke-linecap="round"/>
<path d="M17.3374 3.99999C15.8258 3.56947 14.224 3.56947 12.7124 3.99999C13.0749 3.07499 13.9749 2.42499 15.0249 2.42499C16.0749 2.42499 16.9749 3.07499 17.3374 3.99999Z" stroke="#1A232F" stroke-width="1.5" stroke-miterlimit="10" stroke-linecap="round" stroke-linejoin="round"/>
<path d="M18.7749 23.825C18.7749 25.8875 17.0874 27.575 15.0249 27.575C13.9999 27.575 13.0499 27.15 12.3749 26.475C11.6726 25.7717 11.2771 24.819 11.2749 23.825" stroke="#1A232F" stroke-width="1.5" stroke-miterlimit="10"/>
</svg>
