<svg width="20" height="20" viewBox="0 0 20 20" fill="none" xmlns="http://www.w3.org/2000/svg">
<path d="M14.0304 9.69505H12.5004V9.70007C11.4804 9.70007 10.6504 8.72005 10.6504 7.70006C10.6504 6.68006 11.4804 5.95007 12.5004 5.95007V4.45007C10.6554 4.45007 9.15039 5.95007 9.15039 7.80009C9.15039 9.6501 10.6504 11.1501 12.5004 11.1501V11.1451H14.0304C15.0754 11.1451 16.0004 11.8851 16.0004 13.2001V14.5001H17.5004V12.855C17.5004 11.055 15.9004 9.69505 14.0304 9.69505Z" fill="#00C965"/>
<path d="M17.5 15.5H16V18.5H17.5V15.5Z" fill="#00C965"/>
<path d="M15 15.5H0V18.5H15V15.5Z" fill="#00C965"/>
<path d="M16.85 7.23C17.465 6.62498 17.85 5.78001 17.85 4.85001C17.85 3 16.345 1.5 14.5 1.5V3C15.52 3 16.35 3.83001 16.35 4.85001C16.35 5.87001 15.52 6.70003 14.5 6.70003V8.20003C16.745 8.20003 18.5 10.025 18.5 12.27V14.5H20V12.265C20 10.04 18.72 8.12001 16.85 7.23Z" fill="#00C965"/>
<path d="M20 15.5H18.5V18.5H20V15.5Z" fill="#00C965"/>
</svg>
