<svg width="23" height="19" viewBox="0 0 23 19" fill="none" xmlns="http://www.w3.org/2000/svg">
<g opacity="0.8">
<path d="M19.9155 4.81329V5.36796C19.9155 11.4767 15.3073 18.3299 7.00664 18.3299C4.52529 18.3371 2.09399 17.6305 0 16.2937H1.10468C3.31794 16.2937 5.16044 15.5529 6.82132 14.2575C4.79342 14.2575 3.13261 12.962 2.58023 11.1082H3.50343C3.87045 11.1082 4.79357 11.1082 5.1643 10.922C3.1364 10.5535 1.84619 8.69965 1.84619 6.47727C1.84619 6.84581 2.7693 7.03194 3.50705 7.03194C2.8335 6.63325 2.27504 6.06511 1.88692 5.38358C1.49879 4.70205 1.29446 3.93068 1.29385 3.14558C1.29385 2.21866 1.47916 1.47787 1.84619 0.923203C2.98002 2.35412 4.40616 3.5242 6.02867 4.35453C7.65118 5.18485 9.43225 5.65611 11.2516 5.73649C11.2516 5.36796 11.0663 4.99568 11.0663 4.62715C11.0663 2.03623 13.0941 0 15.6744 0C16.9645 0 18.0731 0.554673 18.9925 1.48159C20.0973 1.29547 21.0204 0.926916 21.9436 0.372252C21.5951 1.45011 20.8761 2.36845 19.9155 2.96316C20.8386 2.77703 21.7582 2.59464 22.4959 2.22238C21.7313 3.17681 20.866 4.04549 19.9155 4.81329Z" fill="#00C965"/>
</g>
</svg>
