<svg width="40" height="40" viewBox="0 0 40 40" fill="none" xmlns="http://www.w3.org/2000/svg">
<path d="M28.448 9.18266C27.5747 8.41312 26.615 7.8511 25.586 7.39283C17.5621 3.85641 8.31894 8.53417 6.51182 17.1375C5.52611 21.8152 6.73662 25.9742 9.97907 29.5193C10.0655 29.6144 10.1606 29.7009 10.2471 29.8046C10.5065 30.1159 10.4892 30.5396 10.2125 30.7903C9.93584 31.0411 9.51216 31.0497 9.25276 30.7471C8.59563 29.9775 7.89526 29.2339 7.33324 28.3952C5.62122 25.8532 4.80845 23.0171 4.7998 19.9476C4.80845 13.7913 8.67345 8.07591 14.4407 5.90563C19.8015 3.88235 24.8078 4.65189 29.4078 8.08455C29.477 8.13643 29.5461 8.17967 29.6499 8.25748C29.6586 8.13643 29.6758 8.04997 29.6758 7.95486C29.6758 7.31501 29.6672 6.68382 29.6758 6.04398C29.6845 5.57706 29.9612 5.26579 30.3589 5.26579C30.7653 5.26579 31.0506 5.56842 31.0593 6.03533C31.0679 7.28907 31.0679 8.53417 31.0593 9.78792C31.0593 10.2981 30.774 10.5575 30.2638 10.5575C29.036 10.5661 27.8082 10.5575 26.5717 10.5575C26.0875 10.5575 25.7676 10.2721 25.7763 9.85709C25.7849 9.4507 26.0875 9.18266 26.5631 9.18266C27.0905 9.17402 27.618 9.18266 28.1454 9.18266C28.2492 9.18266 28.3529 9.18266 28.448 9.18266Z" fill="#1A232F"/>
<path d="M10.8607 22.4291C11.3449 22.4291 11.8291 22.4291 12.3134 22.4291C12.6765 22.4291 13.0483 22.4205 13.4115 22.4291C13.8611 22.4378 14.1637 22.7144 14.1724 23.1035C14.181 23.5013 13.8784 23.8125 13.4115 23.8125C12.1837 23.8212 10.9558 23.8125 9.71939 23.8125C9.71075 23.8125 9.7021 23.8125 9.68481 23.8125C9.17466 23.778 8.90662 23.458 8.9585 22.9479C9.01903 22.2908 9.35624 21.7893 9.84045 21.3829C10.2987 21.0024 10.7916 20.6825 11.2671 20.328C11.6216 20.06 11.9848 19.8092 12.3134 19.5152C12.8062 19.0656 12.91 18.5209 12.6419 18.0972C12.3739 17.6735 11.7254 17.4919 11.1634 17.6649C10.7483 17.7946 10.463 18.0713 10.2555 18.4431C10.0825 18.7457 9.80586 18.8667 9.48594 18.7889C9.18331 18.7111 8.99309 18.5036 8.96715 18.201C8.9585 18.054 9.00173 17.881 9.07091 17.7427C9.77992 16.3506 11.6043 15.8059 12.9618 16.5754C14.1378 17.2412 14.5442 18.7284 13.7746 19.8697C13.446 20.3539 12.9705 20.7603 12.5122 21.1408C12.0799 21.5039 11.5784 21.7979 11.1115 22.1265C11.0077 22.1956 10.9213 22.2821 10.8175 22.3599C10.8434 22.3859 10.8521 22.4118 10.8607 22.4291Z" fill="#1A232F"/>
<path d="M19.4385 20.1723C19.8449 20.2501 20.2686 20.0858 20.528 20.4576C20.6145 20.5787 20.6836 20.7516 20.6836 20.8986C20.6923 21.3568 20.4156 21.5038 19.4385 21.5989C19.4385 22.0745 19.4385 22.5587 19.4385 23.0343C19.4385 23.2072 19.4472 23.3801 19.4299 23.5531C19.4039 23.9422 19.1013 24.2275 18.7382 24.2188C18.3664 24.2102 18.0724 23.9162 18.0724 23.5271C18.0637 22.9478 18.0724 22.3598 18.0637 21.7805C18.0637 21.7286 18.0551 21.6768 18.0551 21.5989C17.9427 21.5903 17.8389 21.5817 17.7352 21.5817C16.9397 21.5817 16.1442 21.5817 15.3401 21.5817C15.0288 21.5817 14.7867 21.4779 14.6484 21.2012C14.5014 20.9245 14.5619 20.6565 14.7521 20.423C15.9021 18.9963 17.0434 17.561 18.1934 16.1343C18.4009 15.875 18.6776 15.7712 18.9976 15.8922C19.3002 16.0047 19.4472 16.2468 19.4472 16.5753C19.4472 17.6561 19.4472 18.7283 19.4472 19.8091C19.4385 19.9129 19.4385 20.0253 19.4385 20.1723ZM16.7149 20.1723C17.2077 20.1723 17.6314 20.1723 18.0464 20.1723C18.0464 19.6275 18.0464 19.1088 18.0464 18.5121C17.5882 19.0915 17.1645 19.6102 16.7149 20.1723Z" fill="#1A232F"/>
<path d="M29.3128 17.6043C28.5346 17.6043 27.817 17.6043 27.0906 17.6043C26.9437 17.6043 26.788 17.5957 26.641 17.5524C26.347 17.4487 26.1914 17.2239 26.1914 16.9126C26.1914 16.6013 26.347 16.3765 26.641 16.2728C26.7707 16.2295 26.9177 16.2209 27.0561 16.2209C28.1023 16.2209 29.1485 16.2122 30.1947 16.2209C30.9124 16.2209 31.215 16.6705 30.9383 17.3276C30.1083 19.325 29.2782 21.3223 28.4395 23.3197C28.2839 23.7001 27.9985 23.8731 27.6613 23.8125C27.35 23.7607 27.0993 23.5099 27.0906 23.1986C27.0906 23.0257 27.1512 22.8355 27.2117 22.6712C27.8602 21.0975 28.5173 19.5325 29.1745 17.9588C29.2263 17.8637 29.2523 17.76 29.3128 17.6043Z" fill="#1A232F"/>
<path d="M21.8594 23.8125C21.9718 23.2592 22.0928 22.6193 22.2139 21.9881C22.603 20.0427 22.9921 18.1058 23.3812 16.1604C23.4849 15.6589 23.7789 15.3995 24.1853 15.4513C24.609 15.5119 24.8511 15.875 24.756 16.3333C24.436 17.9415 24.1161 19.5412 23.7962 21.1494C23.606 22.0919 23.4244 23.0257 23.2342 23.9682C23.1477 24.3746 22.8451 24.6167 22.4906 24.5821C22.1274 24.5561 21.8594 24.2622 21.8594 23.8125Z" fill="#1A232F"/>
<path d="M33.4285 26.4323C32.8751 26.4409 32.5379 25.9999 32.6849 25.5503C32.8319 25.0921 33.0048 24.6424 33.1864 24.1928C33.3333 23.8297 33.7138 23.674 34.0597 23.8037C34.3969 23.9334 34.5871 24.2879 34.466 24.6424C34.3191 25.1007 34.1461 25.5503 33.9645 25.9999C33.8608 26.2766 33.636 26.4236 33.4285 26.4323Z" fill="#1A232F"/>
<path d="M23.7363 33.8078C23.745 33.5225 23.9006 33.3063 24.1859 33.1939C24.6096 33.0297 25.0333 32.874 25.457 32.7184C25.8374 32.5887 26.2006 32.753 26.3389 33.0902C26.4859 33.4447 26.3389 33.8338 25.9498 33.9894C25.5175 34.171 25.0679 34.3439 24.6183 34.4823C24.1687 34.6293 23.7363 34.3007 23.7363 33.8078Z" fill="#1A232F"/>
<path d="M33.342 16.3766C33.3334 15.9702 33.5496 15.6849 33.8608 15.6157C34.2067 15.5379 34.5526 15.6849 34.6477 16.0221C34.7947 16.5495 34.9157 17.0856 34.9935 17.6304C35.0454 17.9589 34.7687 18.2443 34.4229 18.3134C34.1289 18.374 33.7744 18.2097 33.6879 17.9157C33.5409 17.3796 33.4458 16.8349 33.342 16.3766Z" fill="#1A232F"/>
<path d="M32.7023 28.1187C32.6936 28.5251 31.7252 29.8221 31.3966 29.9172C31.1026 30.0037 30.8346 29.9431 30.6444 29.6924C30.4542 29.4503 30.4282 29.1649 30.6011 28.9142C30.8865 28.4992 31.1891 28.0928 31.509 27.7037C31.6993 27.4702 31.9759 27.4011 32.2699 27.5308C32.5553 27.6432 32.6936 27.868 32.7023 28.1187Z" fill="#1A232F"/>
<path d="M13.5943 33.7473C13.5424 33.73 13.43 33.7127 13.3263 33.6608C12.9285 33.4533 12.5221 33.2371 12.1417 33.0123C11.7785 32.7962 11.6748 32.3984 11.865 32.0612C12.0552 31.7326 12.453 31.6202 12.8248 31.8191C13.2225 32.0266 13.6202 32.2428 14.0093 32.4676C14.3033 32.6319 14.4157 32.9432 14.3293 33.2371C14.2428 33.5571 13.9834 33.7473 13.5943 33.7473Z" fill="#1A232F"/>
<path d="M35.1745 20.8728C35.1486 21.184 35.1226 21.4953 35.088 21.8066C35.0448 22.2043 34.7422 22.4551 34.3617 22.4378C33.9813 22.4205 33.7132 22.1265 33.7219 21.7288C33.7392 21.2705 33.7651 20.8036 33.8083 20.3453C33.8516 19.9303 34.1629 19.6709 34.5519 19.7055C34.9237 19.7314 35.1831 20.0254 35.1831 20.4318C35.1831 20.5788 35.1659 20.7344 35.1572 20.8814C35.1659 20.8728 35.1745 20.8728 35.1745 20.8728Z" fill="#1A232F"/>
<path d="M28.154 32.7184C27.8168 32.7011 27.6006 32.5628 27.4968 32.2861C27.3844 32.0094 27.4277 31.7413 27.6611 31.5511C28.0589 31.2226 28.4739 30.9113 28.8976 30.6173C29.1829 30.4271 29.5547 30.5135 29.7709 30.7729C29.9698 31.0237 30.0043 31.4214 29.7622 31.6289C29.3213 32.0094 28.8457 32.3293 28.3701 32.6665C28.3096 32.7184 28.2059 32.7098 28.154 32.7184Z" fill="#1A232F"/>
<path d="M33.7397 13.5664C33.7483 13.9901 33.5667 14.2408 33.2728 14.3446C32.9874 14.4397 32.6675 14.3619 32.5032 14.0938C32.2352 13.6529 31.9931 13.1946 31.7596 12.7363C31.6299 12.4683 31.7337 12.1397 31.9671 11.9495C32.2006 11.7593 32.5638 11.716 32.7713 11.9236C33.2641 12.4164 33.5062 13.0476 33.7397 13.5664Z" fill="#1A232F"/>
<path d="M18.2802 34.3181C18.2802 34.7072 17.969 35.053 17.5799 34.9925C17.0524 34.9147 16.525 34.8023 16.0062 34.6553C15.669 34.5602 15.5047 34.2143 15.5825 33.8857C15.6604 33.5399 15.937 33.2978 16.2829 33.3497C16.8103 33.4275 17.3378 33.5485 17.8566 33.6869C18.1246 33.7647 18.2802 34.0327 18.2802 34.3181Z" fill="#1A232F"/>
<path d="M20.8219 35.174C20.6836 35.1827 20.5453 35.2 20.3983 35.2C19.9919 35.2 19.6979 34.9319 19.6806 34.5601C19.6547 34.1797 19.8968 33.8684 20.3032 33.8252C20.7701 33.7733 21.2456 33.7473 21.7212 33.7301C22.1016 33.7214 22.387 33.9981 22.4129 34.3526C22.4388 34.7158 22.1967 35.0357 21.8249 35.0789C21.4964 35.1221 21.1592 35.1394 20.8306 35.174C20.8219 35.1827 20.8219 35.1827 20.8219 35.174Z" fill="#1A232F"/>
</svg>
