<svg width="40" height="40" viewBox="0 0 40 40" fill="none" xmlns="http://www.w3.org/2000/svg">
<path d="M32.8885 19.7278C34.1986 19.8523 34.9571 20.7487 34.9571 22.1306C34.9571 23.4378 34.9571 24.7326 34.9571 26.0399C34.9571 26.1644 34.9571 26.2889 34.9571 26.4507C35.1524 26.4507 35.3248 26.4383 35.4972 26.4507C35.7845 26.4632 35.9799 26.6748 35.9914 26.9861C36.0029 27.7455 36.0029 28.5049 35.9914 29.2519C35.9914 29.5881 35.7845 29.7748 35.4742 29.7997C35.3133 29.8122 35.1524 29.7997 34.9571 29.7997C34.9571 30.4969 34.9571 31.1692 34.9571 31.8415C34.9571 32.4266 34.8077 32.5885 34.279 32.6009C33.8653 32.6009 33.4631 32.6009 33.0494 32.6009C32.5782 32.6009 32.4518 32.4889 32.3484 31.9784C32.2219 31.3684 32.0955 30.7584 32.0151 30.1359C31.9691 29.8371 31.8542 29.7997 31.6129 29.7997C30.7509 29.8122 29.889 29.7997 29.0386 29.7997C22.1548 29.7997 15.2825 29.7997 8.39863 29.7997C8.13431 29.7997 8.0079 29.8495 7.96193 30.1732C7.86999 30.8206 7.73209 31.4431 7.60567 32.0905C7.53672 32.4391 7.35285 32.6009 7.01957 32.6009C6.54839 32.6009 6.07721 32.6009 5.60603 32.6009C5.2153 32.6009 5.03142 32.4017 5.03142 31.9784C5.03142 31.2688 5.03142 30.5592 5.03142 29.7997C4.84755 29.7997 4.67517 29.8122 4.51428 29.7997C4.20399 29.7873 4.00862 29.5881 4.00862 29.2519C3.99713 28.5049 3.99713 27.7579 4.00862 27.011C4.00862 26.6624 4.20399 26.4632 4.53726 26.4507C4.68666 26.4507 4.83606 26.4507 5.04292 26.4507C5.04292 26.3138 5.04292 26.1893 5.04292 26.0772C5.04292 24.77 5.07739 23.4627 5.03142 22.168C4.98545 20.9852 5.75543 19.8149 7.11151 19.7278C7.11151 19.5908 7.11151 19.4539 7.11151 19.3169C7.11151 16.329 7.11151 13.3285 7.11151 10.3406C7.11151 8.94619 7.98492 8 9.27204 8C16.4317 8 23.5913 8 30.7509 8C32.0381 8 32.9115 8.94619 32.9115 10.3406C32.9115 13.3285 32.9115 16.329 32.9115 19.3169C32.8885 19.4539 32.8885 19.5784 32.8885 19.7278ZM31.8542 19.7278C31.8542 19.5908 31.8542 19.4788 31.8542 19.3543C31.8542 16.3912 31.8542 13.4157 31.8542 10.4526C31.8542 9.55623 31.452 9.12049 30.6245 9.12049C23.5338 9.12049 16.4317 9.12049 9.34099 9.12049C8.51356 9.12049 8.11133 9.55623 8.11133 10.4402C8.11133 13.4157 8.11133 16.4037 8.11133 19.3792C8.11133 19.4912 8.12282 19.6033 8.12282 19.7153C8.47908 19.7153 8.80086 19.7153 9.14563 19.7153C9.14563 18.9932 9.14563 18.296 9.14563 17.5989C9.14563 16.2294 10.019 15.2707 11.2947 15.2707C13.2828 15.2707 15.271 15.2707 17.2591 15.2707C18.6152 15.2707 19.4656 16.192 19.4656 17.6611C19.4656 18.3458 19.4656 19.0306 19.4656 19.7153C19.8334 19.7153 20.1551 19.7153 20.4999 19.7153C20.4999 18.9932 20.4999 18.296 20.4999 17.5989C20.4999 16.2169 21.3733 15.2707 22.6375 15.2707C24.6486 15.2707 26.6597 15.2707 28.6709 15.2707C29.9465 15.2707 30.8199 16.2169 30.8199 17.5864C30.8199 18.296 30.8199 19.0057 30.8199 19.7278C31.1762 19.7278 31.4864 19.7278 31.8542 19.7278ZM33.9228 26.4383C33.9228 25.019 33.9228 23.637 33.9228 22.2551C33.9228 21.2716 33.5435 20.8607 32.6242 20.8607C24.2004 20.8607 15.7766 20.8607 7.35285 20.8607C7.2724 20.8607 7.18046 20.8607 7.10002 20.8607C6.51392 20.8856 6.07721 21.3463 6.06572 21.9688C6.05423 23.4378 6.06572 24.9069 6.06572 26.3636C6.06572 26.376 6.08871 26.4009 6.1002 26.4258C15.3514 26.4383 24.6141 26.4383 33.9228 26.4383ZM5.03142 28.6668C15.0181 28.6668 24.9704 28.6668 34.9226 28.6668C34.9226 28.2933 34.9226 27.9322 34.9226 27.5836C24.9474 27.5836 14.9952 27.5836 5.03142 27.5836C5.03142 27.9447 5.03142 28.2933 5.03142 28.6668ZM18.4313 19.7278C18.4313 18.9434 18.4543 18.184 18.4198 17.437C18.3968 16.8394 17.9601 16.3912 17.397 16.3912C15.3399 16.3788 13.2713 16.3788 11.2142 16.3912C10.6741 16.3912 10.2259 16.7896 10.1914 17.3623C10.1454 18.1466 10.1799 18.931 10.1799 19.7402C12.938 19.7278 15.6617 19.7278 18.4313 19.7278ZM21.5342 19.7153C24.2808 19.7153 27.0275 19.7153 29.7856 19.7153C29.7856 18.9434 29.8086 18.184 29.7741 17.4121C29.7511 16.8145 29.3029 16.3912 28.7398 16.3912C26.6942 16.3788 24.6371 16.3788 22.5915 16.3912C21.9939 16.3912 21.5572 16.8768 21.5457 17.5241C21.5227 18.2462 21.5342 18.9683 21.5342 19.7153ZM6.06572 31.4805C6.21512 31.4805 6.34153 31.5054 6.46795 31.468C6.54839 31.4431 6.67481 31.3684 6.6863 31.2937C6.78973 30.8082 6.87017 30.3226 6.96211 29.8122C6.66331 29.8122 6.37601 29.8122 6.07721 29.8122C6.06572 30.36 6.06572 30.8953 6.06572 31.4805ZM33.0034 29.8246C33.0839 30.2728 33.1988 30.7086 33.2447 31.1443C33.2792 31.4307 33.3827 31.5303 33.6355 31.4929C33.7159 31.4805 33.7964 31.4929 33.8998 31.4929C33.8998 30.9202 33.8998 30.3849 33.8998 29.8371C33.601 29.8246 33.3137 29.8246 33.0034 29.8246Z" fill="#1A232F"/>
</svg>
