<svg width="40" height="40" viewBox="0 0 40 40" fill="none" xmlns="http://www.w3.org/2000/svg">
<path d="M4 17.3917C4.25049 16.6403 4.79061 16.3428 5.56556 16.3898C5.9726 16.4133 6.37965 16.3741 6.78669 16.3976C7.14677 16.4211 7.50685 16.4915 7.91389 16.5463C8.00783 16.2489 8.12524 15.881 8.25049 15.5052C8.5636 14.5424 8.82975 13.5718 9.18982 12.6324C9.65949 11.4035 10.6145 10.7694 11.9217 10.7068C12.5636 10.6755 13.2133 10.699 13.8787 10.699C14.09 9.97882 14.3014 9.27432 14.5049 8.56199C14.7945 7.56786 15.2877 7.19995 16.3131 7.19995C18.7789 7.19995 21.2524 7.19995 23.7182 7.19995C24.7045 7.19995 25.2133 7.58351 25.4873 8.53068C25.6986 9.25083 25.91 9.96316 26.1213 10.6911C26.7162 10.6911 27.2877 10.6911 27.8591 10.6911C29.3933 10.699 30.4736 11.4818 30.9354 12.9455C31.2955 14.0649 31.6478 15.1843 32 16.3037C32.0313 16.4133 32.0783 16.515 32.0861 16.5385C32.501 16.4837 32.8689 16.4133 33.2446 16.3898C33.7221 16.3663 34.1996 16.3819 34.6849 16.3819C35.4834 16.3898 35.9922 16.9064 36 17.697C36 17.9553 36 18.2215 36 18.4798C35.9922 19.2782 35.4912 19.7792 34.6928 19.8027C34.4344 19.8105 34.1761 19.8027 33.8708 19.8027C33.9335 19.9123 33.9726 19.9906 34.0196 20.061C34.6223 20.9612 34.9354 21.9475 34.9276 23.0277C34.9198 24.1393 34.9511 25.2587 34.8806 26.3702C34.8023 27.4974 34.1683 28.3037 33.1507 28.7812C32.9393 28.8829 32.8611 28.9847 32.8689 29.2195C32.8845 29.7909 32.8767 30.3624 32.8767 30.9416C32.8689 32.1549 32.0861 32.9377 30.8806 32.9455C30.2779 32.9455 29.6751 32.9455 29.0646 32.9455C27.8591 32.9377 27.0763 32.1549 27.0685 30.9416C27.0607 30.3311 27.0685 29.7205 27.0685 29.0864C22.3483 29.0864 17.6595 29.0864 12.9315 29.0864C12.9315 29.7205 12.9393 30.3389 12.9315 30.9651C12.9237 31.9749 12.3288 32.7264 11.4129 32.8986C11.2642 32.9299 11.0998 32.9377 10.9432 32.9377C10.317 32.9455 9.6908 32.9455 9.07241 32.9377C7.93738 32.9221 7.1546 32.1471 7.13112 31.0043C7.12329 30.3937 7.13894 29.7753 7.12329 29.1647C7.12329 29.0708 7.03718 28.9299 6.95108 28.8986C5.79256 28.4289 5.14286 27.5679 5.09589 26.3232C5.04892 25.0473 5.06458 23.7636 5.11155 22.4798C5.15068 21.5091 5.5499 20.6481 6.16047 19.8027C5.23679 19.8418 4.34442 19.881 4 18.8164C4 18.3467 4 17.8692 4 17.3917ZM32.4932 19.7714C32.2348 20.2254 31.9922 20.6246 31.7886 21.0473C31.225 22.1823 30.2857 22.652 29.0489 22.652C24.2505 22.6442 19.4442 22.652 14.6458 22.652C14.5519 22.652 14.4579 22.652 14.364 22.6442C14.1135 22.6129 13.9648 22.4563 13.9491 22.2136C13.9335 21.9632 14.0665 21.7988 14.317 21.744C14.4501 21.7127 14.5832 21.7205 14.7241 21.7205C19.4834 21.7205 24.2427 21.7205 29.002 21.7127C29.3307 21.7127 29.6673 21.65 29.9804 21.5639C30.184 21.5091 30.4188 21.3917 30.5284 21.2273C30.9432 20.609 31.3112 19.9671 31.7495 19.2469C31.3659 19.2 31.092 19.1373 30.818 19.1373C23.6086 19.1295 16.3992 19.1295 9.18982 19.1373C8.91585 19.1373 8.64188 19.2078 8.31311 19.2469C8.59491 19.7557 8.86106 20.1941 9.08023 20.6481C9.45597 21.423 10.0822 21.7205 10.8963 21.7205C11.3268 21.7205 11.7495 21.7127 12.18 21.7283C12.501 21.7362 12.6967 21.9319 12.6888 22.2058C12.681 22.472 12.4853 22.652 12.1644 22.6598C11.7495 22.6677 11.3346 22.6598 10.9119 22.6598C9.71429 22.6677 8.80626 22.1902 8.25049 21.0943C8.03131 20.6637 7.78082 20.241 7.55382 19.834C7.49119 19.8418 7.46771 19.834 7.45206 19.8497C7.39726 19.881 7.35029 19.9201 7.30333 19.9592C6.59883 20.6324 6.12133 21.4387 6.06654 22.4093C5.99609 23.6931 6.0274 24.9925 6.01957 26.2841C6.01957 26.4407 6.05088 26.5972 6.09002 26.7459C6.33268 27.6461 7.06067 28.1549 8.08611 28.1549C15.9609 28.1549 23.8356 28.1549 31.7104 28.1549C31.8043 28.1549 31.8982 28.1549 31.9922 28.1471C33.0411 28.0845 33.8787 27.3487 33.9335 26.2998C34.0039 25.0943 33.9726 23.8888 33.9569 22.6755C33.9491 22.0414 33.7299 21.4465 33.4168 20.8986C33.1898 20.4759 32.9237 20.0923 32.4932 19.7714ZM10.3092 18.1667C16.7906 18.1667 23.2329 18.1667 29.6986 18.1667C29.2603 16.7812 28.8297 15.427 28.3992 14.0727C28.2505 13.6187 28.0861 13.5013 27.6008 13.4935C27.0294 13.4935 26.4579 13.4935 25.8787 13.4935C25.5734 13.4935 25.2759 13.5091 24.9706 13.4857C24.6184 13.4622 24.4384 13.2352 24.4931 12.9299C24.5479 12.6403 24.7593 12.5542 25.0254 12.5542C25.8552 12.5542 26.6928 12.5542 27.5225 12.5542C28.5166 12.5542 29.0098 12.9221 29.3151 13.8692C29.7456 15.2234 30.1761 16.5855 30.6145 17.9397C30.6458 18.0336 30.7476 18.1589 30.8337 18.1745C31.0841 18.2215 31.3425 18.2215 31.6164 18.2371C31.6086 18.1902 31.6086 18.151 31.6008 18.1119C31.0763 16.4602 30.5597 14.8007 30.0196 13.1491C29.683 12.1315 28.955 11.6305 27.8434 11.6305C22.6145 11.6305 17.3855 11.6305 12.1566 11.6305C10.998 11.6305 10.2857 12.1549 9.93346 13.2665C9.70646 13.9788 9.47945 14.6911 9.25245 15.4035C8.95499 16.3428 8.65753 17.2821 8.35225 18.245C8.59491 18.2215 8.81409 18.1902 9.02544 18.198C9.24462 18.2058 9.33072 18.1275 9.39335 17.924C9.80822 16.5855 10.2387 15.2469 10.6693 13.9084C10.9902 12.9064 11.4599 12.5542 12.4932 12.5542C15.8278 12.5542 19.1546 12.5542 22.4892 12.5542C22.6067 12.5542 22.7162 12.5542 22.8337 12.5698C23.0763 12.609 23.2016 12.7733 23.2094 13.0003C23.2172 13.2273 23.1076 13.4074 22.865 13.4544C22.7241 13.4857 22.5753 13.4857 22.4344 13.4857C19.2407 13.4857 16.0391 13.4857 12.8454 13.4857C11.7808 13.4857 11.7808 13.4857 11.4599 14.5033C11.0763 15.7166 10.7006 16.9299 10.3092 18.1667ZM25.1507 10.6833C24.9237 9.93968 24.7202 9.21169 24.4853 8.49154C24.407 8.24105 24.1722 8.13929 23.9139 8.13146C23.5616 8.13146 23.2094 8.13146 22.8493 8.13146C20.6419 8.13146 18.4344 8.13146 16.227 8.13146C15.9217 8.13146 15.6321 8.18625 15.5303 8.49154C15.2877 9.20387 15.0841 9.93968 14.8571 10.6833C18.3014 10.6833 21.6986 10.6833 25.1507 10.6833ZM8.07045 29.0864C8.07045 29.8066 8.04697 30.4876 8.07828 31.1765C8.10176 31.6618 8.50098 32.0062 9.00196 32.014C9.66732 32.0219 10.3327 32.0219 10.998 32.014C11.593 32.0062 11.9765 31.6383 11.9922 31.0434C12 30.6911 11.9922 30.3389 11.9922 29.9788C11.9922 29.6814 11.9922 29.3839 11.9922 29.0864C10.6693 29.0864 9.38552 29.0864 8.07045 29.0864ZM31.9295 29.1021C30.6067 29.1021 29.3151 29.1021 28.0078 29.1021C28.0078 29.7909 27.9922 30.4563 28.0157 31.1217C28.0313 31.6305 28.4227 31.9984 28.9237 32.0062C29.6204 32.0219 30.317 32.0219 31.0137 32.0062C31.5225 31.9984 31.9061 31.6305 31.9217 31.1217C31.9452 30.4563 31.9295 29.7909 31.9295 29.1021ZM6.1683 17.3291C5.87867 17.3291 5.58904 17.3291 5.29159 17.3291C5.07241 17.3291 4.93933 17.4465 4.93933 17.6735C4.93151 17.9553 4.93933 18.2371 4.93933 18.5189C4.93933 18.7459 5.06458 18.8712 5.28376 18.8712C5.85519 18.879 6.42661 18.8868 6.99804 18.8712C7.2407 18.8634 7.4364 18.7459 7.42074 18.4407C7.40509 18.1902 7.42074 17.9397 7.41292 17.6892C7.40509 17.4544 7.28767 17.3291 7.03718 17.3291C6.74755 17.3291 6.45793 17.3291 6.1683 17.3291ZM33.816 17.3291C33.5342 17.3291 33.2524 17.3291 32.9706 17.3291C32.7123 17.3291 32.5871 17.4544 32.5793 17.7127C32.5714 17.9553 32.5793 18.1902 32.5793 18.4328C32.5793 18.7068 32.728 18.879 33.0098 18.879C33.5734 18.8868 34.1292 18.8868 34.6928 18.879C34.9276 18.879 35.0528 18.7459 35.0528 18.5033C35.0528 18.245 35.0528 17.9866 35.0528 17.7205C35.0528 17.4465 34.9119 17.3213 34.6458 17.3291C34.3796 17.3291 34.0978 17.3291 33.816 17.3291Z" fill="#1A232F"/>
<path d="M19.9994 27.1374C18.3556 27.1374 16.7118 27.1374 15.0679 27.1374C14.4104 27.1374 13.9564 26.7851 13.8546 26.198C13.8311 26.065 13.8311 25.9241 13.8625 25.7988C13.9877 25.2587 14.1129 24.7264 14.2617 24.1941C14.3947 23.7166 14.794 23.4113 15.2871 23.3722C15.3889 23.3644 15.4985 23.3644 15.6002 23.3644C18.5356 23.3644 21.4711 23.3644 24.4065 23.3644C25.2754 23.3644 25.6198 23.6305 25.839 24.4838C25.9407 24.8673 26.0425 25.2509 26.1286 25.6344C26.3321 26.5033 25.839 27.1374 24.931 27.1452C23.2871 27.1374 21.6433 27.1374 19.9994 27.1374ZM20.0073 26.198C21.5963 26.198 23.1932 26.198 24.7822 26.198C25.2754 26.198 25.3067 26.1589 25.1814 25.6736C25.1032 25.3605 24.9936 25.0552 24.9466 24.7342C24.8918 24.3898 24.7274 24.2802 24.383 24.2881C21.6668 24.3037 18.9505 24.2959 16.2343 24.2959C15.9838 24.2959 15.7333 24.3037 15.4828 24.2959C15.2715 24.2881 15.1619 24.3742 15.1149 24.5855C15.0288 24.9612 14.927 25.3292 14.8253 25.7049C14.7079 26.1511 14.747 26.198 15.201 26.198C16.8057 26.198 18.4026 26.198 20.0073 26.198Z" fill="#1A232F"/>
<path d="M11.8828 26.9495C10.9982 26.8556 9.94932 26.746 8.90823 26.6364C8.43073 26.5894 8.12545 26.3389 8.0002 25.8693C7.86713 25.3761 7.7184 24.8908 7.59316 24.3976C7.40529 23.654 7.87496 23.106 8.63425 23.1843C9.6049 23.2939 10.5755 23.4113 11.5462 23.5288C11.9767 23.5757 12.2742 23.7949 12.4464 24.2019C12.6421 24.6638 12.8534 25.11 13.0491 25.5718C13.4014 26.3937 12.9395 27.0434 11.8828 26.9495ZM12.2272 26.0415C11.9924 25.517 11.7967 25.0473 11.5775 24.5933C11.5462 24.5229 11.4209 24.4681 11.3348 24.4524C10.873 24.382 10.4112 24.3272 9.94149 24.2724C9.47183 24.2176 9.00216 24.1628 8.48553 24.108C8.54032 24.3194 8.57946 24.4916 8.63425 24.656C8.72819 24.9847 8.72819 25.4152 8.94737 25.6109C9.15872 25.7988 9.58924 25.7518 9.92584 25.791C10.6617 25.8771 11.4053 25.9554 12.2272 26.0415Z" fill="#1A232F"/>
<path d="M27.8669 26.9806C27.1154 26.9728 26.6692 26.3857 26.8962 25.7752C27.1154 25.1802 27.3972 24.6088 27.6633 24.0374C27.8199 23.7008 28.1252 23.5677 28.4696 23.5286C29.4481 23.4112 30.4344 23.2859 31.4129 23.1842C32.1252 23.1059 32.6027 23.6382 32.4383 24.3348C32.3131 24.8671 32.1487 25.3994 31.9999 25.9317C31.8904 26.3075 31.6555 26.5579 31.2641 26.6049C30.1056 26.738 28.9393 26.8632 27.8669 26.9806ZM31.5224 24.1548C31.4598 24.1392 31.4285 24.1235 31.3972 24.1235C30.4657 24.2331 29.542 24.3348 28.6105 24.4523C28.5479 24.4601 28.4618 24.5305 28.4305 24.5932C28.2191 25.055 28.0156 25.5168 27.8121 25.9787C27.8434 26.0022 27.8512 26.01 27.859 26.01C28.9001 25.9082 29.9412 25.8065 30.9902 25.6969C31.0371 25.6891 31.1076 25.6421 31.1232 25.5951C31.2641 25.1176 31.3894 24.6401 31.5224 24.1548Z" fill="#1A232F"/>
<path d="M21.2132 9.74413C21.088 9.94765 21.0018 10.1277 20.8844 10.2764C20.8296 10.339 20.6966 10.3312 20.6026 10.3547C20.587 10.2608 20.5713 10.1668 20.5557 10.0651C20.5557 10.0572 20.5635 10.0494 20.5713 10.0416C20.9549 9.65802 20.9627 9.27446 20.5948 8.86742C20.5478 8.82045 20.6105 8.6639 20.6183 8.56213C20.72 8.59344 20.8609 8.59345 20.9157 8.6639C21.0332 8.8048 21.1114 8.97701 21.2132 9.16487C21.3228 8.96918 21.4011 8.78914 21.5185 8.65607C21.5733 8.59344 21.7142 8.60127 21.8238 8.56996C21.8316 8.66389 21.8942 8.80479 21.8472 8.85176C21.4637 9.26663 21.4793 9.65802 21.8629 10.0651C21.9099 10.112 21.8551 10.2529 21.8394 10.3469C21.7377 10.3234 21.5968 10.3312 21.5341 10.2608C21.4167 10.1277 21.3384 9.94765 21.2132 9.74413Z" fill="#1A232F"/>
<path d="M19.7186 10.0102C19.4681 10.0415 19.1628 9.8615 19.0924 10.2842C19.0846 10.3233 18.9358 10.3781 18.8732 10.3625C18.8106 10.339 18.7245 10.2216 18.7401 10.1668C18.881 9.66581 19.0298 9.16483 19.1942 8.67951C19.2176 8.60906 19.382 8.52295 19.4681 8.53861C19.5699 8.55426 19.703 8.6482 19.7343 8.74213C19.8908 9.18049 20.0239 9.6345 20.1413 10.0807C20.1648 10.159 20.0709 10.2764 20.0317 10.3703C19.9456 10.3077 19.8517 10.2607 19.7734 10.1903C19.7421 10.159 19.7421 10.0885 19.7186 10.0102ZM19.6325 9.68146C19.5777 9.47794 19.5308 9.2979 19.476 9.12569C19.4603 9.12569 19.4447 9.11786 19.4212 9.11786C19.3742 9.2979 19.3272 9.47794 19.2724 9.68146C19.4055 9.68146 19.4994 9.68146 19.6325 9.68146Z" fill="#1A232F"/>
<path d="M17.7143 8.93C17.5342 8.82824 17.2289 8.9848 17.2681 8.67169C17.2994 8.41337 17.5499 8.53861 17.7064 8.52296C17.9021 8.5073 18.1057 8.49948 18.3013 8.52296C18.3953 8.53861 18.5518 8.60906 18.5675 8.67951C18.6066 8.87521 18.4422 8.87521 18.3013 8.87521C18.2622 8.87521 18.2152 8.88304 18.1291 8.88304C18.1291 9.28225 18.137 9.68147 18.1213 10.0807C18.1213 10.1746 18.0822 10.3155 18.0195 10.339C17.8395 10.4173 17.7221 10.3468 17.7221 10.1277C17.7143 9.74409 17.7143 9.33705 17.7143 8.93Z" fill="#1A232F"/>
<path d="M22.7557 9.46999C22.7557 9.68917 22.7713 9.90835 22.7478 10.1197C22.74 10.2136 22.6304 10.2919 22.5678 10.378C22.4973 10.2997 22.3799 10.2215 22.3721 10.1354C22.3564 9.68134 22.3564 9.2195 22.3721 8.76549C22.3721 8.67938 22.4973 8.60111 22.5678 8.52283C22.6304 8.60893 22.7322 8.68721 22.7478 8.78114C22.7713 9.01598 22.7557 9.24298 22.7557 9.46999Z" fill="#1A232F"/>
</svg>
