<svg width="40" height="40" viewBox="0 0 40 40" fill="none" xmlns="http://www.w3.org/2000/svg">
<path d="M15.4288 14.3686C12.9073 16.7355 9.64199 16.5133 7.56493 15.0352C5.3816 13.4798 4.46383 10.6879 5.31398 8.14707C6.17378 5.56766 8.57931 3.92533 11.3616 4.00261C13.7092 4.07024 16.5784 5.80917 17.1484 9.33535C17.2933 9.33535 17.4479 9.33535 17.5928 9.33535C23.0608 9.33535 28.5384 9.33535 34.0064 9.33535C34.1223 9.33535 34.2479 9.33535 34.3638 9.33535C34.644 9.32569 34.8662 9.44161 34.9628 9.71212C35.0594 9.99228 34.9628 10.2241 34.731 10.4174C34.0064 10.9777 33.2915 11.5477 32.5766 12.1176C29.5238 14.5328 26.471 16.948 23.4086 19.3535C23.2057 19.5081 23.1284 19.6723 23.1284 19.9235C23.1381 24.2129 23.1381 28.5023 23.1284 32.7916C23.1284 33.0621 23.2057 33.1877 23.4472 33.3133C25.1378 34.1345 26.8188 34.975 28.4901 35.8155C28.664 35.9024 28.8379 36.0473 28.9248 36.2115C29.0891 36.5303 28.8572 36.9071 28.4998 36.9747C28.3935 36.9941 28.2872 36.9844 28.1713 36.9844C24.4229 36.9844 20.6746 36.9844 16.9262 36.9844C16.762 36.9844 16.5591 36.9844 16.4432 36.8975C16.2982 36.7815 16.1823 36.5787 16.1533 36.4048C16.105 36.1149 16.3176 35.9507 16.5591 35.8348C17.786 35.2261 19.0226 34.6175 20.2495 34.0089C20.7035 33.7867 21.1479 33.5452 21.6117 33.3423C21.8822 33.2264 21.9691 33.0718 21.9691 32.7723C21.9594 29.3524 21.9594 25.9228 21.9594 22.5029C21.9594 21.6142 21.9691 20.7157 21.9498 19.8269C21.9498 19.6917 21.8822 19.5081 21.7856 19.4308C19.6988 17.7402 17.5638 16.0592 15.4288 14.3686ZM15.9022 9.33535C15.8442 7.38388 13.912 5.52901 11.6611 5.20055C9.43912 4.88174 7.14952 6.33085 6.42496 8.5335C5.67142 10.8134 6.67614 13.3059 8.78218 14.4266C10.9559 15.5858 13.3904 14.8323 14.453 13.6151C14.3758 13.5474 14.2888 13.4798 14.2115 13.4122C13.0039 12.4558 11.7963 11.4994 10.5791 10.5429C10.5308 10.5043 10.4825 10.4657 10.4342 10.4367C10.183 10.2531 10.0671 10.0116 10.183 9.71212C10.2893 9.42229 10.5308 9.33535 10.8206 9.33535C12.3856 9.33535 13.9507 9.33535 15.5157 9.33535C15.6413 9.33535 15.7669 9.33535 15.9022 9.33535ZM12.4919 10.5043C12.5209 10.5719 12.5306 10.6009 12.5402 10.6106C13.7575 11.5766 14.9747 12.5427 16.2016 13.4991C16.2789 13.5668 16.4238 13.5957 16.5301 13.5764C18.4043 13.2769 20.3171 13.0934 22.1527 12.6393C25.36 11.8471 28.5577 11.0839 31.8907 11.026C32.1515 11.026 32.4124 10.7458 32.6829 10.5912C32.6636 10.5623 32.6442 10.5236 32.6249 10.4946C25.9204 10.5043 19.2255 10.5043 12.4919 10.5043ZM17.6411 14.6777C17.7474 14.7454 17.786 14.7743 17.8246 14.8033C19.3317 15.9916 20.8291 17.1702 22.3266 18.3681C22.5584 18.5614 22.713 18.4551 22.8869 18.3102C25.1765 16.494 27.4757 14.6777 29.775 12.8615C29.9972 12.6876 30.2194 12.5041 30.4319 12.3302C30.4126 12.2915 30.4029 12.2432 30.3836 12.2046C28.8572 12.4558 27.3115 12.6586 25.7948 12.9678C24.1814 13.2963 22.5971 13.7503 20.9837 14.0981C19.921 14.3203 18.8197 14.4749 17.6411 14.6777ZM19.2738 35.7961C21.5151 35.7961 23.6501 35.7961 25.8914 35.7961C24.7804 35.2455 23.7563 34.7431 22.7323 34.2408C22.655 34.2021 22.5391 34.1924 22.4715 34.2311C21.4281 34.7334 20.3944 35.2455 19.2738 35.7961Z" fill="#1A232F"/>
<path d="M14.2894 7.26807C14.2894 7.74145 13.2654 8.81379 12.9079 8.77515C12.734 8.75583 12.4925 8.63024 12.4249 8.48533C12.3476 8.3211 12.3476 8.03127 12.4539 7.88636C12.7244 7.53857 13.0335 7.21011 13.3813 6.92995C13.5166 6.82368 13.8064 6.82368 13.9803 6.8913C14.1348 6.96859 14.2314 7.19079 14.2894 7.26807Z" fill="#1A232F"/>
<path d="M10.531 6.901C10.531 6.68847 10.5117 6.46627 10.531 6.25373C10.56 5.94459 10.7532 5.77069 11.0527 5.75137C11.3522 5.73205 11.6034 5.88662 11.6324 6.17645C11.671 6.64982 11.671 7.13286 11.6324 7.6159C11.6034 7.91538 11.3522 8.06995 11.0527 8.05063C10.7532 8.03131 10.56 7.85742 10.531 7.54827C10.5117 7.33574 10.531 7.11354 10.531 6.901Z" fill="#1A232F"/>
<path d="M7.86392 10.6587C7.6707 10.6587 7.47749 10.6684 7.28427 10.6587C6.96547 10.6298 6.75293 10.3882 6.75293 10.0791C6.75293 9.76996 6.96547 9.52844 7.28427 9.50912C7.69002 9.4898 8.10544 9.4898 8.51119 9.50912C8.82999 9.52844 9.05219 9.77962 9.05219 10.0791C9.05219 10.3786 8.82999 10.6201 8.51119 10.6491C8.29865 10.6684 8.08611 10.6587 7.86392 10.6587Z" fill="#1A232F"/>
<path d="M10.5307 13.2576C10.5307 13.045 10.5114 12.8228 10.5307 12.6103C10.5597 12.3011 10.7625 12.1369 11.062 12.1176C11.3615 12.0983 11.6127 12.2528 11.632 12.5523C11.6707 13.0257 11.6707 13.5087 11.632 13.9918C11.603 14.2912 11.3518 14.4362 11.0524 14.4168C10.7529 14.3975 10.5597 14.2236 10.5307 13.9145C10.5114 13.6923 10.521 13.4797 10.5307 13.2576Z" fill="#1A232F"/>
<path d="M9.89261 11.9049C9.82499 12.0692 9.81533 12.1948 9.7477 12.272C9.43856 12.6102 9.12941 12.9483 8.78163 13.2478C8.55943 13.441 8.27927 13.3927 8.05707 13.1801C7.85419 12.9773 7.79623 12.7068 7.97978 12.4942C8.28893 12.1271 8.62705 11.7793 8.99416 11.4702C9.11009 11.3736 9.39991 11.3929 9.55448 11.4702C9.70906 11.5475 9.796 11.7697 9.89261 11.9049Z" fill="#1A232F"/>
<path d="M8.47299 6.81386C8.8401 6.82352 9.84482 7.86688 9.84482 8.22433C9.83516 8.65907 9.3328 8.96821 8.99467 8.69771C8.6179 8.38857 8.26046 8.03112 7.97063 7.64469C7.70979 7.28724 8.03826 6.8042 8.47299 6.81386Z" fill="#1A232F"/>
</svg>
