<svg width="40" height="40" viewBox="0 0 40 40" fill="none" xmlns="http://www.w3.org/2000/svg">
<path d="M4 20.9315C4.13307 20.6184 4.38356 20.5245 4.7045 20.5245C5.17417 20.5323 5.63601 20.5245 6.12916 20.5245C6.20744 16.8063 7.45988 13.589 10.0196 10.9276C12.5793 8.26614 15.7417 6.8728 19.4521 6.65362C19.4521 6.12916 19.4521 5.6047 19.4521 5.05675C19.1155 5.05675 18.7867 5.05675 18.4344 5.05675C18.4344 4.68885 18.4344 4.35225 18.4344 4C19.4912 4 20.5401 4 21.6047 4C21.6047 4.34442 21.6047 4.67319 21.6047 5.0411C21.2603 5.0411 20.9237 5.0411 20.5714 5.0411C20.5714 5.59687 20.5714 6.1135 20.5714 6.65362C24.274 6.86497 27.4442 8.25832 30.0117 10.9276C32.5714 13.589 33.8239 16.8063 33.9022 20.5245C34.3718 20.5245 34.818 20.5245 35.2642 20.5245C35.8826 20.5245 36.0626 20.728 36.0157 21.3464C35.8826 23.0841 34.5362 24.5088 32.7984 24.7515C32.7045 24.7671 32.6184 24.7906 32.501 24.8141C32.8297 25.4012 32.9628 26.0117 32.7045 26.6301C32.5636 26.9589 32.3757 27.2955 32.1096 27.5225C29.9413 29.3464 27.7495 31.1468 25.5656 32.9472C24.7984 33.5812 23.9061 33.8708 22.9119 33.8708C18.8806 33.8708 14.8493 33.8708 10.818 33.8708C10.6928 33.8708 10.5675 33.8708 10.4031 33.8708C10.4031 34.3562 10.3875 34.818 10.411 35.2798C10.4266 35.6086 10.3092 35.8434 10.0274 36C8.02348 36 6.0274 36 4.02348 36C4.02348 35.6399 4.02348 35.2877 4.02348 34.9354C5.78474 34.9354 7.55382 34.9354 9.31507 34.9354C9.31507 32.2427 9.31507 29.5969 9.31507 26.9354C7.53816 26.9354 5.77691 26.9354 4.02348 26.9354C4.02348 26.5832 4.02348 26.2309 4.02348 25.8708C5.78474 25.8708 7.54599 25.863 9.30724 25.8708C9.58121 25.8708 9.86301 25.9178 10.137 25.9335C10.1918 25.9335 10.2622 25.9178 10.3014 25.8865C10.7162 25.5499 11.1311 25.2055 11.6164 24.7984C11.4207 24.7984 11.319 24.7984 11.225 24.7984C10.0978 24.7984 8.97847 24.8063 7.85127 24.7984C6.5362 24.7906 5.47945 24.2583 4.69667 23.1859C4.32877 22.6771 4.15656 22.09 4.02348 21.4873C4 21.3072 4 21.1194 4 20.9315ZM7.21722 20.4697C15.7573 20.4697 24.2818 20.4697 32.7984 20.4697C32.8141 13.6908 27.225 7.69472 19.953 7.72603C12.6027 7.76517 7.17025 13.8708 7.21722 20.4697ZM10.4266 32.7984C10.5675 32.7984 10.6928 32.7984 10.818 32.7984C14.8102 32.7984 18.7945 32.7906 22.7867 32.8063C23.6477 32.8063 24.3914 32.5558 25.0489 31.9922C26.1918 31.0215 27.3581 30.0744 28.5166 29.1194C29.4638 28.3366 30.411 27.5538 31.3581 26.771C31.7104 26.4814 31.8513 26.1057 31.7104 25.6595C31.5773 25.2368 31.272 24.9706 30.8415 24.9785C30.5597 24.9785 30.2466 25.1037 30.0117 25.2603C28.0861 26.6145 26.1761 27.9843 24.2661 29.3542C24.0235 29.5264 23.7808 29.6047 23.4834 29.6047C21.5264 29.5969 19.5695 29.6047 17.6125 29.5969C17.456 29.5969 17.2994 29.589 17.1429 29.5656C16.3444 29.4716 15.7495 28.7906 15.7573 27.9843C15.7573 27.1859 16.3522 26.5127 17.135 26.4188C17.362 26.3953 17.589 26.3875 17.8239 26.3875C18.8258 26.3796 19.82 26.3875 20.8219 26.3796C21.1898 26.3796 21.4325 26.1761 21.5656 25.8552C21.683 25.5577 21.6282 25.2446 21.3777 25.0568C21.182 24.9159 20.9159 24.8063 20.6732 24.8063C18.4423 24.7906 16.2192 24.7984 13.9883 24.7906C13.4873 24.7906 13.0802 24.9472 12.7045 25.2603C12.0235 25.8395 11.3346 26.411 10.638 26.9746C10.4736 27.1076 10.4188 27.2485 10.4188 27.4521C10.4266 29.1194 10.4188 30.7867 10.4266 32.454C10.411 32.5636 10.4188 32.6654 10.4266 32.7984ZM5.1272 21.6125C5.18982 21.8004 5.23679 21.9726 5.30724 22.137C5.8317 23.2485 6.73973 23.7339 7.9452 23.7339C12.3679 23.7339 16.7984 23.7339 21.2211 23.7339C24.8219 23.7339 28.4305 23.7339 32.0313 23.7339C32.5479 23.7339 33.0489 23.6712 33.5108 23.4207C34.2231 23.0294 34.6849 22.4423 34.865 21.6204C24.9393 21.6125 15.045 21.6125 5.1272 21.6125ZM22.5205 24.8141C22.5362 24.8924 22.5519 24.9472 22.5675 25.0098C22.9354 26.2074 22.1683 27.3738 20.9237 27.4364C19.82 27.4912 18.7162 27.4521 17.6125 27.4599C17.4638 27.4599 17.2916 27.4364 17.1898 27.5069C17.0333 27.6164 16.8845 27.7887 16.8297 27.9609C16.7593 28.1957 16.9159 28.3836 17.135 28.4775C17.2524 28.5245 17.4012 28.5323 17.5342 28.5323C19.4599 28.5323 21.3855 28.5401 23.3112 28.5245C23.4677 28.5245 23.6399 28.4618 23.7652 28.3757C25.3464 27.2564 26.9198 26.1292 28.4932 25.002C28.5636 24.955 28.6262 24.8924 28.7202 24.8141C26.6301 24.8141 24.5793 24.8141 22.5205 24.8141Z" fill="#1A232F"/>
<path d="M6.6692 30.6692C7.55374 30.6692 8.25824 31.3737 8.25824 32.2504C8.25824 33.1349 7.53025 33.8708 6.65354 33.8551C5.78466 33.8394 5.0645 33.1115 5.07233 32.2504C5.07233 31.3815 5.79249 30.6692 6.6692 30.6692ZM7.19366 32.2582C7.19366 31.9608 6.951 31.7259 6.65354 31.7338C6.37174 31.7416 6.13691 31.9764 6.13691 32.2582C6.13691 32.54 6.40305 32.7983 6.68485 32.7905C6.95883 32.7827 7.19366 32.54 7.19366 32.2582Z" fill="#1A232F"/>
<path d="M12.7045 12.7515C12.4541 12.4854 12.2192 12.2427 11.9766 11.9766C14.2544 9.89437 16.9002 8.84544 19.9766 8.79065C19.9766 9.1429 19.9766 9.4795 19.9766 9.8474C17.2055 9.9022 14.7789 10.8572 12.7045 12.7515Z" fill="#1A232F"/>
<path d="M11.2173 12.728C11.4913 12.9707 11.7496 13.1977 12.0158 13.4404C11.7027 13.8396 11.4052 14.231 11.0764 14.6537C10.7946 14.4658 10.5128 14.2779 10.1919 14.0666C10.5363 13.6204 10.8729 13.182 11.2173 12.728Z" fill="#1A232F"/>
</svg>
