<svg width="40" height="40" viewBox="0 0 40 40" fill="none" xmlns="http://www.w3.org/2000/svg">
<path d="M33.6955 27.5104C33.612 28.1114 33.2447 28.5121 32.6604 28.6707C32.2847 28.7709 31.9174 28.7125 31.5752 28.5121C31.2079 28.2951 30.8406 28.0864 30.4065 27.8359C30.4649 28.0613 30.5067 28.2199 30.5568 28.3869C30.7571 29.1549 30.3564 29.9062 29.6218 30.1232C28.8789 30.3486 28.1109 29.9563 27.8605 29.1883C27.5349 28.1448 27.226 27.1013 26.8921 26.0579C26.8337 25.8909 26.7001 25.7156 26.5499 25.6238C25.5481 25.0228 24.5297 24.4551 23.528 23.8624C23.3694 23.7706 23.2692 23.7706 23.1273 23.9042C22.6097 24.38 22.0087 24.7306 21.3325 24.9476C21.1489 25.0061 21.0654 25.0895 21.0654 25.2899C21.0738 26.4753 21.0654 27.6606 21.0821 28.8544C21.0821 28.9879 21.1656 29.1549 21.2574 29.2551C22.0004 30.0731 22.76 30.8745 23.5113 31.6842C23.8953 32.1016 24.0038 32.5941 23.8118 33.1284C23.6198 33.6626 23.2108 33.9715 22.6515 34.0383C22.2174 34.0967 21.8334 33.9465 21.5162 33.6376C21.391 33.5207 21.2658 33.3955 21.0821 33.2286C21.0821 33.5792 21.0654 33.8713 21.0905 34.1635C21.1656 35.04 20.8567 35.6828 19.9886 36H19.3625C19.1788 35.8998 18.9701 35.8164 18.8032 35.6828C18.4275 35.399 18.2689 34.9983 18.2689 34.5392V33.1868C18.1103 33.3454 18.0185 33.4456 17.9267 33.5458C17.3256 34.1635 16.4825 34.2136 15.8898 33.6543C15.3055 33.1033 15.2888 32.2519 15.8815 31.6175C16.6161 30.8244 17.359 30.0397 18.0936 29.2384C18.1938 29.1298 18.2689 28.9545 18.2689 28.8043C18.2856 27.6356 18.2689 26.4753 18.2856 25.3066C18.2856 25.0979 18.2272 24.9977 18.0185 24.9309C17.3507 24.7139 16.7413 24.3633 16.2237 23.8875C16.0818 23.7539 15.9817 23.7539 15.8231 23.8541C14.8297 24.4384 13.828 25.0144 12.8179 25.5821C12.6092 25.6989 12.484 25.8408 12.4339 26.0746C12.3922 26.2582 12.3421 26.4335 12.2669 26.6088C12.1668 26.8676 11.933 26.9761 11.6909 26.8927C11.4489 26.8092 11.3153 26.5838 11.3904 26.325C11.4823 25.9828 11.5824 25.6405 11.7076 25.3149C11.7577 25.1897 11.8746 25.0729 11.9915 24.9977C13.2687 24.2464 14.5459 23.5118 15.8231 22.7772C16.0818 22.627 16.3156 22.652 16.5243 22.8774C17.142 23.5452 17.8933 23.9793 18.7865 24.1796C19.0787 24.2464 19.2122 24.4217 19.2122 24.7056C19.2122 26.1914 19.2206 27.6857 19.2039 29.1716C19.2039 29.3385 19.0954 29.5305 18.9785 29.6557C18.1938 30.5156 17.3924 31.367 16.6077 32.2268C16.4992 32.3437 16.3991 32.5441 16.4157 32.686C16.4324 32.8279 16.591 33.0199 16.7246 33.0533C16.8749 33.095 17.1003 33.0199 17.2171 32.9114C17.6011 32.5441 17.9517 32.1434 18.3107 31.7594C18.4776 31.5757 18.6613 31.4588 18.9117 31.559C19.1705 31.6592 19.2122 31.8846 19.2039 32.1267C19.2039 32.8863 19.2039 33.6459 19.2039 34.4056C19.2039 34.8313 19.3625 35.0484 19.663 35.0567C19.9719 35.0651 20.1388 34.8397 20.1388 34.3889C20.1388 34.3138 20.1388 34.2386 20.1388 34.1719C20.1388 33.5291 20.1388 32.878 20.1388 32.2352C20.1388 32.1517 20.1138 32.0515 20.1472 31.9848C20.2306 31.8345 20.3141 31.6175 20.456 31.5674C20.5896 31.5173 20.84 31.5841 20.9486 31.6842C21.3659 32.0766 21.7249 32.5274 22.1423 32.9197C22.2508 33.0282 22.4929 33.0866 22.6348 33.0449C22.7684 33.0032 22.9103 32.8112 22.9353 32.6693C22.9603 32.5357 22.8518 32.3521 22.7517 32.2352C22.2842 31.7093 21.7917 31.1917 21.3075 30.6742C20.9986 30.3403 20.6647 30.023 20.3809 29.6641C20.2473 29.4971 20.1472 29.2634 20.1472 29.0547C20.1305 27.6356 20.1305 26.2248 20.1388 24.8057C20.1388 24.355 20.214 24.2548 20.6731 24.1379C21.4912 23.9376 22.1924 23.5285 22.7767 22.9191C23.0772 22.6019 23.2191 22.5852 23.5948 22.7939C24.8302 23.5035 26.0657 24.2047 27.2928 24.9393C27.4681 25.0478 27.6267 25.2565 27.6935 25.4485C28.0524 26.542 28.378 27.6523 28.7203 28.7542C28.8288 29.1215 29.0458 29.2717 29.3213 29.1966C29.6218 29.1131 29.722 28.8627 29.6135 28.4954C29.4632 27.9945 29.3213 27.502 29.1627 27.0012C29.0959 26.7758 29.1126 26.5838 29.2879 26.4335C29.4799 26.2666 29.6886 26.3083 29.8973 26.4252C30.5818 26.8259 31.2663 27.2182 31.9508 27.6106C32.2931 27.8026 32.5686 27.7692 32.7105 27.502C32.8607 27.2433 32.7522 26.9928 32.4099 26.7925C31.7338 26.4001 31.0576 26.0078 30.3815 25.6238C30.1728 25.5069 30.0225 25.3567 30.0559 25.1062C30.0893 24.8391 30.2813 24.7306 30.5234 24.6722C31.0493 24.5553 31.5752 24.4384 32.1011 24.3049C32.3933 24.2297 32.5268 24.0127 32.4684 23.7456C32.4183 23.4951 32.1929 23.3616 31.8924 23.4033C31.8423 23.4117 31.7922 23.42 31.7421 23.4284C30.8322 23.637 29.9056 23.8123 29.0124 24.0711C28.353 24.2631 27.8104 24.188 27.226 23.8124C26.1993 23.1529 25.1224 22.5852 24.0706 21.9759C23.6866 21.7505 23.6365 21.6253 23.7617 21.1828C23.9955 20.3731 23.9955 19.5634 23.7534 18.7536C23.6282 18.3363 23.6866 18.1943 24.0539 17.9857C25.281 17.2761 26.4998 16.5582 27.7352 15.8737C27.9272 15.7652 28.1944 15.7234 28.4114 15.7652C29.5133 15.9905 30.5985 16.2577 31.692 16.5165C31.7338 16.5248 31.7755 16.5332 31.8173 16.5415C32.1679 16.6083 32.4016 16.4914 32.4684 16.2243C32.5352 15.9405 32.3766 15.7067 32.026 15.6233C31.5501 15.5064 31.0743 15.3979 30.5985 15.2977C30.3397 15.2476 30.106 15.1641 30.0559 14.8636C30.0058 14.5631 30.2229 14.4212 30.4482 14.296C31.1077 13.9203 31.7672 13.5363 32.4266 13.1607C32.627 13.0438 32.7856 12.9019 32.7689 12.6515C32.7439 12.2925 32.3682 12.1172 32.0176 12.3176C31.3581 12.6932 30.6987 13.0772 30.0475 13.4528C29.9724 13.4946 29.9056 13.5697 29.8305 13.5697C29.6552 13.5781 29.4215 13.6198 29.3213 13.528C29.2044 13.4278 29.1376 13.1774 29.171 13.0188C29.2879 12.4929 29.4716 11.9837 29.6218 11.4661C29.722 11.1155 29.6218 10.8734 29.338 10.7816C29.0625 10.6981 28.8371 10.84 28.7286 11.199C28.3947 12.2842 28.0608 13.361 27.7352 14.4546C27.6518 14.7467 27.5015 14.9387 27.2344 15.089C26.0323 15.7652 24.8386 16.4664 23.6365 17.1592C23.2191 17.4013 23.0939 17.3846 22.7684 17.0507C22.184 16.4413 21.4828 16.0406 20.6647 15.8403C20.2306 15.7318 20.1472 15.6316 20.1472 15.1975C20.1472 14.8219 20.1388 14.4462 20.1472 14.0706C20.1472 14.0455 20.1472 14.0205 20.1555 13.9954V11.6497C20.1472 11.3409 20.1472 11.032 20.1722 10.7231C20.1806 10.5979 20.2891 10.456 20.3809 10.3558C21.1405 9.52943 21.9085 8.703 22.6765 7.88493C22.735 7.82649 22.7934 7.76806 22.8435 7.70128C23.0188 7.47589 23.0104 7.23381 22.8268 7.05016C22.6348 6.85816 22.3677 6.85816 22.159 7.06685C21.7833 7.4425 21.4244 7.83484 21.0654 8.22719C20.8901 8.41083 20.7148 8.56109 20.4393 8.45257C20.1639 8.34405 20.1388 8.11032 20.1388 7.85989C20.1388 7.14198 20.1388 6.42408 20.1388 5.70618C20.1388 5.6227 20.1388 5.53922 20.1388 5.45575C20.1138 5.15523 19.9385 4.96323 19.6797 4.95488C19.4126 4.94654 19.2039 5.14688 19.2039 5.46409C19.1955 6.182 19.2039 6.8999 19.1955 7.6178C19.1955 7.74302 19.2289 7.88493 19.1872 7.99345C19.1204 8.1604 19.0202 8.38579 18.8867 8.43588C18.7448 8.48596 18.486 8.41083 18.3691 8.30231C17.9601 7.91832 17.6095 7.47589 17.2004 7.0919C17.0836 6.98338 16.8331 6.93329 16.6745 6.97503C16.5493 7.00842 16.4074 7.22546 16.3991 7.36737C16.3824 7.50094 16.4992 7.67624 16.5994 7.7931C17.3757 8.63622 18.1521 9.47934 18.9368 10.3058C19.1204 10.5061 19.2039 10.7065 19.1955 10.9736C19.1872 12.3676 19.1955 13.7617 19.1955 15.1558C19.1955 15.6483 19.1204 15.7401 18.6362 15.8653C17.8349 16.0657 17.1587 16.4664 16.5827 17.0507C16.2488 17.393 16.1152 17.418 15.7145 17.1843C14.5041 16.4914 13.3021 15.7819 12.0916 15.0973C11.8329 14.9554 11.6909 14.7634 11.6075 14.488C11.2986 13.4445 10.973 12.401 10.6558 11.3576C10.5139 10.8818 10.3219 10.7148 10.0131 10.7983C9.6875 10.8901 9.60402 11.1489 9.74593 11.6164C9.88784 12.0755 10.0214 12.5346 10.1633 12.9854C10.2384 13.2108 10.2217 13.4028 10.0381 13.553C9.8461 13.72 9.63741 13.6866 9.42872 13.5614C8.72751 13.1523 8.0263 12.7433 7.31675 12.3426C7.02458 12.1756 6.74911 12.2341 6.60719 12.4762C6.46528 12.7266 6.55711 12.9687 6.84928 13.1523C6.94945 13.2108 7.04962 13.2692 7.14145 13.3276C7.72579 13.6615 8.31013 14.0038 8.90281 14.3377C9.11151 14.4546 9.29515 14.6048 9.25342 14.872C9.22003 15.1558 9.00299 15.256 8.75255 15.3144C8.26839 15.4229 7.77587 15.5314 7.29171 15.6483C6.93275 15.7318 6.77415 15.9488 6.83258 16.2326C6.89102 16.5081 7.14145 16.6417 7.5004 16.5665C8.61899 16.3161 9.72924 16.0573 10.8395 15.7902C11.1066 15.7234 11.3403 15.7485 11.5824 15.8904C12.7845 16.5999 13.9949 17.2928 15.197 17.9857C15.6144 18.2277 15.6645 18.3446 15.5392 18.7954C15.3055 19.6051 15.3055 20.4148 15.5392 21.2246C15.6645 21.6503 15.606 21.7839 15.2137 22.0092C13.9866 22.7188 12.7678 23.4284 11.5323 24.1212C11.357 24.2214 11.0899 24.2548 10.8896 24.213C9.78767 23.9793 8.70247 23.7122 7.60892 23.4617C7.59222 23.4534 7.56718 23.4534 7.55048 23.445C7.16649 23.3616 6.90771 23.4701 6.84093 23.7539C6.7658 24.0544 6.94945 24.2798 7.34179 24.3716C7.80926 24.4802 8.27673 24.5887 8.74421 24.6889C8.99464 24.7389 9.21168 24.8308 9.26176 25.1146C9.31185 25.3984 9.11985 25.5487 8.90281 25.6739C8.235 26.0579 7.56718 26.4419 6.89936 26.8259C6.56546 27.0179 6.46528 27.2766 6.62389 27.5354C6.77415 27.7859 7.04128 27.8192 7.35849 27.6356C8.03465 27.2516 8.71081 26.8593 9.38698 26.4669C9.59567 26.3417 9.81271 26.2749 10.0214 26.4419C10.2384 26.6088 10.2301 26.8259 10.155 27.0596C9.99636 27.5521 9.8461 28.053 9.69584 28.5538C9.60402 28.8794 9.71254 29.1215 9.98801 29.205C10.2551 29.2884 10.4805 29.1465 10.589 28.821C10.6475 28.654 10.6892 28.4787 10.7477 28.3201C10.8478 28.0697 11.0899 27.9528 11.3236 28.0279C11.5657 28.1114 11.6993 28.3452 11.6242 28.6039C11.5574 28.8544 11.4906 29.1048 11.3821 29.3469C11.0899 30.0147 10.3219 30.3319 9.63741 30.0898C8.96125 29.8477 8.57725 29.1382 8.75255 28.437C8.79429 28.2617 8.85273 28.078 8.91951 27.8276C8.49378 28.0697 8.14317 28.2784 7.79257 28.4704C7.03293 28.8961 6.18146 28.6958 5.78912 27.9945C5.38843 27.285 5.63886 26.4753 6.40685 26.0245C6.75745 25.8241 7.10806 25.6155 7.50875 25.3817C7.3084 25.3316 7.17484 25.2899 7.03293 25.2565C6.2065 25.0562 5.73068 24.3216 5.92268 23.5452C6.11468 22.7689 6.85763 22.3348 7.68405 22.5185C8.73586 22.7605 9.78767 23.011 10.8478 23.2364C10.9897 23.2697 11.1817 23.2447 11.307 23.1696C12.3337 22.5936 13.3438 22.0009 14.3706 21.4166C14.5375 21.3164 14.5876 21.2329 14.5459 21.0242C14.3956 20.323 14.3956 19.6135 14.5542 18.9206C14.5959 18.7369 14.5459 18.6618 14.3956 18.5783C13.3605 17.9857 12.3254 17.3763 11.2819 16.7919C11.1734 16.7251 11.0064 16.7085 10.8812 16.7418C9.81271 16.9756 8.75255 17.226 7.6924 17.4681C7.04128 17.6184 6.46528 17.4013 6.13137 16.8921C5.81416 16.4079 5.82251 15.7819 6.14807 15.306C6.35676 15.0139 6.64059 14.8302 6.98284 14.7467C7.14145 14.705 7.30005 14.6716 7.52544 14.6132C7.09971 14.3711 6.74076 14.1624 6.39015 13.9454C5.64721 13.5113 5.40512 12.6932 5.80581 11.992C6.19816 11.2991 7.04127 11.0904 7.78422 11.5078C8.14317 11.7082 8.50212 11.9252 8.94455 12.1756C8.87777 11.967 8.83603 11.8417 8.80264 11.7082C8.5689 10.8901 8.9529 10.1138 9.71254 9.88003C10.4889 9.64629 11.2318 10.0553 11.4823 10.8818C11.7995 11.9002 12.1 12.9353 12.4339 13.9537C12.4923 14.1207 12.6259 14.296 12.7761 14.3878C13.8363 15.0222 14.9132 15.6316 15.9065 16.2076C16.5493 15.8319 17.142 15.4563 17.7514 15.1474C18.2272 14.9053 18.2439 14.9471 18.2439 14.3961C18.2439 13.3694 18.2355 12.3343 18.2522 11.3075C18.2522 11.0487 18.1938 10.8567 18.0102 10.6731C17.2672 9.89672 16.541 9.11204 15.8147 8.31901C15.4307 7.90163 15.3222 7.40911 15.5225 6.87486C15.7229 6.3406 16.1236 6.03174 16.6829 5.96496C17.117 5.90652 17.5009 6.05678 17.8182 6.36565C17.9434 6.48252 18.0686 6.60773 18.2522 6.78303C18.2522 6.29887 18.2439 5.88148 18.2522 5.45575C18.2689 4.74619 18.6529 4.22863 19.279 4.05333C20.1138 3.8196 20.9736 4.37889 21.0404 5.24705C21.0821 5.73122 21.0487 6.22373 21.0487 6.7079C21.0738 6.7246 21.1072 6.73294 21.1322 6.74964C21.2407 6.63277 21.3409 6.50756 21.4578 6.39904C22.0254 5.82305 22.8769 5.798 23.4529 6.3406C24.0122 6.86651 24.0455 7.72632 23.5196 8.31066C22.7934 9.11204 22.0504 9.90507 21.3075 10.6898C21.1322 10.8734 21.0487 11.0487 21.0738 11.2991C21.0905 11.4828 21.0905 11.6664 21.0738 11.8417V13.9954C21.0738 14.0205 21.0738 14.0372 21.0821 14.0622C21.0988 14.3627 21.007 14.73 21.1489 14.9387C21.2825 15.1391 21.6748 15.1474 21.9169 15.2977C22.3426 15.5481 22.7517 15.8319 23.1607 16.1241C23.2943 16.2159 23.3694 16.241 23.5113 16.1575C24.5548 15.5481 25.5982 14.9554 26.6417 14.3377C26.7502 14.2709 26.842 14.129 26.8838 14.0038C27.2177 12.9436 27.5349 11.8751 27.8688 10.815C28.1025 10.0637 28.8204 9.67134 29.5634 9.86334C30.2896 10.047 30.7488 10.7899 30.5818 11.5245C30.5401 11.7165 30.4816 11.9002 30.4065 12.1756C30.8322 11.9252 31.1995 11.7249 31.5585 11.5078C31.9091 11.2991 32.2764 11.2324 32.6687 11.3325C33.2531 11.4995 33.6204 11.8918 33.7038 12.4929C33.7873 13.0689 33.5703 13.5447 33.0861 13.8619C32.6938 14.1123 32.2847 14.3377 31.834 14.6048C32.0176 14.6549 32.1595 14.6967 32.2931 14.73C33.1195 14.9304 33.5953 15.665 33.4117 16.433C33.2197 17.2177 32.4767 17.6517 31.6503 17.4597C30.6486 17.2344 29.6469 17.0006 28.6451 16.7585C28.3697 16.6918 28.1359 16.7168 27.8855 16.8671C26.9172 17.4431 25.9488 18.0023 24.9721 18.5533C24.8052 18.6451 24.7468 18.7369 24.7968 18.9456C24.9471 19.6468 24.9471 20.3564 24.7885 21.0493C24.7468 21.2329 24.7968 21.308 24.9471 21.3915C25.9906 21.9842 27.0173 22.5852 28.0608 23.1779C28.1693 23.2447 28.3363 23.2614 28.4615 23.2364C29.53 23.0026 30.5901 22.7522 31.6503 22.5101C32.2597 22.3682 32.7856 22.5185 33.1779 23.0277C33.5202 23.4784 33.5369 24.1045 33.2447 24.5887C33.036 24.9309 32.7355 25.1313 32.3599 25.2315C32.2013 25.2732 32.0427 25.3066 31.8256 25.365C32.2847 25.6405 32.7021 25.8575 33.0945 26.1163C33.5619 26.4586 33.779 26.9344 33.6955 27.5104Z" fill="#1A232F"/>
<path d="M19.6884 17.2679C21.2161 17.2762 22.4348 18.5117 22.4265 20.0393C22.4181 21.5669 21.1827 22.7857 19.6467 22.769C18.1358 22.7607 16.917 21.5252 16.917 20.0059C16.9253 18.4866 18.1525 17.2595 19.6884 17.2679ZM19.6634 21.8341C20.6818 21.8341 21.4915 21.0327 21.4915 20.0226C21.4915 19.0209 20.6985 18.2112 19.6968 18.2028C18.6784 18.1945 17.8603 18.9875 17.8519 19.9976C17.8519 21.016 18.6533 21.8341 19.6634 21.8341Z" fill="#1A232F"/>
</svg>
