<svg width="40" height="40" viewBox="0 0 40 40" fill="none" xmlns="http://www.w3.org/2000/svg">
<path d="M4.82209 24.0451C4.91124 23.8297 4.9781 23.5994 5.09697 23.3988C5.41642 22.8267 5.92903 22.4998 6.56051 22.3958C7.89776 22.173 9.04184 21.5861 10.0151 20.65C11.3226 19.3945 12.905 18.8373 14.7028 18.8373C16.3447 18.8373 17.9865 18.8373 19.6284 18.8373C21.0622 18.8373 22.3697 19.231 23.5584 20.0408C24.7173 20.8283 25.8837 21.6083 27.0649 22.3587C27.6295 22.7153 28.2684 22.8936 28.9445 22.9827C28.9445 21.2518 28.9445 19.5356 28.9445 17.7823C28.8256 17.7823 28.7216 17.7823 28.6102 17.7823C27.6815 17.7823 26.7529 17.7823 25.8243 17.7823C25.0219 17.7749 24.6059 17.3663 24.5985 16.5565C24.591 15.8656 24.5985 15.1747 24.5985 14.4838C24.5985 14.4244 24.5985 14.3649 24.6059 14.3055C24.6356 14.0381 24.8139 13.8598 25.0368 13.8672C25.2819 13.8672 25.4602 14.0529 25.4602 14.3427C25.4677 15.0633 25.4602 15.7839 25.4602 16.5045C25.4602 16.8908 25.4974 16.928 25.8837 16.928C28.5508 16.928 31.2178 16.928 33.8923 16.928C34.2786 16.928 34.3083 16.8983 34.3083 16.4971C34.3083 13.83 34.3083 11.163 34.3083 8.48849C34.3083 8.09475 34.286 8.06503 33.8849 8.06503C31.2178 8.06503 28.5508 8.06503 25.8763 8.06503C25.4825 8.06503 25.4528 8.09475 25.4528 8.48849C25.4528 9.41714 25.4528 10.3458 25.4528 11.2744C25.4528 11.3636 25.4602 11.4527 25.4379 11.5419C25.3859 11.7573 25.2596 11.891 25.0219 11.891C24.7916 11.891 24.6133 11.7722 24.6133 11.5493C24.6059 10.3681 24.591 9.1794 24.643 7.99817C24.6653 7.52271 25.1779 7.20325 25.7128 7.20325C26.7083 7.19582 27.7113 7.20325 28.7068 7.20325C30.4452 7.20325 32.1836 7.20325 33.9294 7.20325C34.7467 7.20325 35.1775 7.62671 35.1775 8.44392C35.1775 11.1407 35.1775 13.8375 35.1775 16.5417C35.1775 17.3663 34.7615 17.7823 33.9369 17.7823C33.1494 17.7823 32.3545 17.7823 31.567 17.7823C31.463 17.7823 31.3515 17.7823 31.2252 17.7823C31.2252 19.6842 31.2252 21.5563 31.2252 23.4508C31.619 23.5325 32.0127 23.6142 32.4065 23.6959C33.9815 24.0154 35.3113 25.6424 35.1924 27.2099C35.1478 27.8191 35.1924 28.4357 35.185 29.0449C35.1775 30.033 34.5312 30.7388 33.5431 30.7239C33.0082 30.7165 32.7259 30.8353 32.4659 31.3628C31.9533 32.3806 31.0172 32.8635 29.8731 32.8115C28.6771 32.7521 27.8078 32.1354 27.3472 31.0211C27.2507 30.7982 27.1467 30.7388 26.9163 30.7388C22.34 30.7462 17.7636 30.7462 13.1873 30.7388C12.957 30.7388 12.8456 30.7908 12.7564 31.0211C12.333 32.1354 11.1814 32.8858 10.0151 32.8189C8.72982 32.7521 7.68231 31.9423 7.35543 30.7388C7.30342 30.5605 7.2217 30.4565 7.0434 30.3822C6.64223 30.2187 6.25592 30.0181 5.84731 29.8621C5.32727 29.6615 4.95582 29.3347 4.7998 28.7849C4.82209 27.2099 4.82209 25.6275 4.82209 24.0451ZM27.1318 29.8473C27.1912 29.0821 27.4661 28.4209 28.0159 27.886C28.573 27.3436 29.2565 27.0836 30.0292 27.0836C30.6458 27.0762 31.2178 27.2768 31.7156 27.6482C32.4436 28.198 32.8076 28.9483 32.8894 29.8621C33.0974 29.8621 33.2905 29.8621 33.4763 29.8621C34.0409 29.8547 34.3232 29.5724 34.3306 29.0078C34.3381 28.3689 34.2935 27.7225 34.3381 27.0836C34.4198 26.0435 33.4243 24.8549 32.5179 24.6394C31.5224 24.3943 30.5195 24.1565 29.5091 24.0005C27.9639 23.7628 26.5672 23.213 25.3117 22.277C24.591 21.7421 23.8258 21.274 23.0829 20.7614C22.0503 20.0482 20.9136 19.6991 19.6581 19.7065C17.9865 19.7139 16.315 19.7065 14.6434 19.7139C14.3834 19.7139 14.1308 19.7213 13.8782 19.7511C12.5335 19.8996 11.3969 20.494 10.4311 21.4375C9.76247 22.0912 8.98984 22.5816 8.1132 22.8787C7.62288 23.0422 7.10284 23.1462 6.59766 23.2725C6.06276 23.4062 5.71359 23.7999 5.70616 24.3497C5.6913 25.7464 5.6913 27.1356 5.70616 28.5323C5.70616 28.6586 5.78788 28.8518 5.89189 28.9038C6.33021 29.1341 6.79824 29.3272 7.25142 29.5278C7.8829 27.8191 8.80411 27.0539 10.1636 27.0911C10.7951 27.1059 11.3672 27.2991 11.8723 27.6854C12.5781 28.2277 12.9273 28.9706 13.0016 29.8547C17.7116 29.8473 22.4143 29.8473 27.1318 29.8473ZM10.1265 31.9497C11.2409 31.9423 12.1249 31.0434 12.1175 29.9216C12.1101 28.822 11.2037 27.9454 10.0894 27.9603C8.98984 27.9677 8.10577 28.8666 8.1132 29.9736C8.12063 31.0656 9.02698 31.9571 10.1265 31.9497ZM30.0143 31.9497C31.1361 31.9423 32.0053 31.0582 31.9979 29.9216C31.9904 28.822 31.0915 27.938 29.9846 27.9528C28.8776 27.9677 28.0084 28.8518 28.0159 29.9661C28.0159 31.0731 28.9074 31.9571 30.0143 31.9497ZM30.3263 23.2502C30.3263 21.4226 30.3263 19.6173 30.3263 17.7972C30.1554 17.7972 30.0069 17.7972 29.8211 17.7972C29.8211 17.9309 29.8211 18.0498 29.8211 18.1687C29.8211 19.6768 29.8211 21.1849 29.8211 22.693C29.8211 23.2353 29.732 23.161 30.3263 23.2502Z" fill="#1A232F"/>
<path d="M17.0287 9.37256C18.9529 9.39485 20.6838 10.0858 22.1251 11.4676C22.3628 11.6979 22.3925 11.9505 22.2068 12.1436C22.0359 12.3219 21.7759 12.3219 21.5456 12.1065C20.6467 11.2521 19.5992 10.6504 18.3808 10.3978C16.2412 9.95946 14.3319 10.4424 12.6604 11.8613C12.5564 11.9505 12.4598 12.0545 12.3483 12.1362C12.1255 12.3145 11.8729 12.3145 11.7094 12.1288C11.5386 11.943 11.5386 11.683 11.7689 11.5047C12.3335 11.0664 12.8907 10.5909 13.5147 10.2343C14.5919 9.61772 15.7435 9.37256 17.0287 9.37256Z" fill="#1A232F"/>
<path d="M29.324 13.0129C29.324 13.5776 29.324 14.0753 29.324 14.5731C29.324 14.9148 29.1828 15.0411 28.8337 15.0411C28.4993 15.0337 28.373 14.9148 28.373 14.5731C28.373 13.0798 28.373 11.594 28.373 10.1007C28.373 9.76641 28.4548 9.66983 28.7891 9.6624C29.3537 9.65497 29.9183 9.65497 30.4755 9.67726C31.2927 9.72184 31.8276 10.2642 31.8722 11.0814C31.887 11.3042 31.887 11.542 31.8499 11.7574C31.7236 12.4855 31.2184 12.9461 30.4755 12.9981C30.0966 13.0352 29.7251 13.0129 29.324 13.0129ZM29.3388 12.27C29.6657 12.27 29.9703 12.2923 30.2749 12.2626C30.6538 12.2255 30.8395 12.0546 30.899 11.698C30.9658 11.3117 30.9807 10.9179 30.6241 10.643C30.5498 10.5836 30.4458 10.539 30.3566 10.539C30.0223 10.5242 29.6954 10.5316 29.3463 10.5316C29.3388 11.1111 29.3388 11.6757 29.3388 12.27Z" fill="#1A232F"/>
<path d="M16.9612 12.7603C15.936 12.7752 15.0371 13.1095 14.2645 13.8004C14.2199 13.8375 14.1753 13.8821 14.1307 13.9193C13.9004 14.0976 13.6553 14.0901 13.4918 13.9118C13.3284 13.7261 13.3433 13.4809 13.5513 13.2804C14.2199 12.634 15.0074 12.1957 15.9212 12.01C17.5779 11.6757 19.0488 12.0843 20.3044 13.2209C20.5718 13.4661 20.6089 13.7112 20.4232 13.9118C20.2375 14.1124 19.9923 14.105 19.7249 13.8524C18.9448 13.1392 18.0236 12.7752 16.9612 12.7603Z" fill="#1A232F"/>
<path d="M16.9612 14.3799C17.5852 14.3947 18.135 14.6028 18.603 15.0262C18.811 15.2119 18.8408 15.472 18.6922 15.6577C18.5362 15.8434 18.2836 15.8731 18.0607 15.6874C17.5852 15.2862 17.0578 15.1377 16.4709 15.3382C16.2703 15.4051 16.092 15.5463 15.9137 15.6651C15.6537 15.8509 15.4234 15.8509 15.2525 15.6577C15.0742 15.4497 15.1188 15.2119 15.3713 14.9891C15.8171 14.5879 16.3594 14.4022 16.9612 14.3799Z" fill="#1A232F"/>
<path d="M15.6697 24.3719C15.6697 23.3096 15.6697 22.2695 15.6697 21.222C14.1096 21.0957 12.6758 21.3037 11.4722 22.4255C10.9076 22.953 10.2316 23.3616 9.61495 23.837C9.51095 23.9188 9.45894 24.0748 9.38465 24.2011C9.50352 24.2605 9.62238 24.3794 9.74868 24.3794C10.2687 24.4017 10.7962 24.3868 11.3237 24.3868C11.6654 24.3868 11.8437 24.5502 11.8363 24.8251C11.8288 25.0926 11.658 25.2337 11.3311 25.2412C10.7665 25.2486 10.2019 25.2486 9.63724 25.2412C9.08006 25.2337 8.68631 24.9217 8.54516 24.4165C8.41143 23.9336 8.58973 23.4359 9.05777 23.1684C9.83783 22.7227 10.5064 22.1432 11.1751 21.5637C12.0443 20.806 13.0769 20.3825 14.2284 20.3676C16.1377 20.3454 18.0396 20.3528 19.9489 20.3602C21.0112 20.3676 21.9547 20.7465 22.824 21.326C23.9086 22.0466 24.9933 22.7747 26.0779 23.4879C26.4345 23.7256 26.6797 24.0228 26.7391 24.4537C26.7985 24.8771 26.546 25.1966 26.1299 25.2337C26.0333 25.2412 25.9293 25.2412 25.8328 25.2412C22.0662 25.2412 18.2996 25.2412 14.533 25.2412C14.4662 25.2412 14.3919 25.2412 14.325 25.2412C14.0056 25.2263 13.8273 25.0777 13.8273 24.8177C13.8273 24.5577 13.9981 24.3942 14.3176 24.3868C14.6668 24.3794 15.0085 24.3868 15.3577 24.3868C15.4617 24.3868 15.5583 24.3794 15.6697 24.3719ZM16.5835 21.2517C16.5835 22.2769 16.5835 23.317 16.5835 24.3719C19.6517 24.3719 22.6977 24.3719 25.7436 24.3719C25.7659 24.3422 25.7882 24.3199 25.8105 24.2902C25.7659 24.2754 25.7065 24.2679 25.6693 24.2457C24.5252 23.4879 23.3811 22.7301 22.2371 21.9723C21.6799 21.6009 21.0707 21.2963 20.4021 21.274C19.1391 21.222 17.8762 21.2517 16.5835 21.2517Z" fill="#1A232F"/>
<path d="M16.9392 26.7718C16.7312 26.7718 16.5231 26.7792 16.3226 26.7718C16.0551 26.7569 15.8768 26.5935 15.8694 26.3557C15.8619 26.1329 16.0328 25.9248 16.2928 25.9174C16.746 25.9026 17.1992 25.8951 17.6524 25.9248C17.9272 25.9397 18.0758 26.1329 18.0535 26.378C18.0313 26.638 17.8678 26.7643 17.6226 26.7792C17.3923 26.7792 17.1695 26.7718 16.9392 26.7718Z" fill="#1A232F"/>
<path d="M11.4194 29.9439C11.4269 30.672 10.84 31.2737 10.1119 31.2737C9.40613 31.2737 8.8118 30.6868 8.79694 29.9736C8.78951 29.253 9.38385 28.6512 10.1119 28.6512C10.8325 28.6512 11.412 29.2233 11.4194 29.9439ZM10.5576 29.9439C10.5502 29.7062 10.3199 29.4982 10.0822 29.513C9.84445 29.5279 9.66615 29.7285 9.67358 29.9662C9.68101 30.2188 9.88903 30.4045 10.1416 30.3897C10.3794 30.3748 10.5725 30.1742 10.5576 29.9439Z" fill="#1A232F"/>
<path d="M30.0074 28.6512C30.728 28.6512 31.3372 29.253 31.3224 29.9736C31.3075 30.6868 30.7206 31.2737 30.0074 31.2737C29.2868 31.2737 28.685 30.672 28.6925 29.9439C28.7073 29.2233 29.2868 28.6512 30.0074 28.6512ZM30.0148 29.513C29.7771 29.5056 29.5617 29.721 29.5617 29.9662C29.5617 30.1965 29.7622 30.3971 30 30.3971C30.2377 30.4045 30.4383 30.2188 30.4532 29.9811C30.4606 29.7359 30.26 29.513 30.0148 29.513Z" fill="#1A232F"/>
</svg>
