<svg width="40" height="40" viewBox="0 0 40 40" fill="none" xmlns="http://www.w3.org/2000/svg">
<path d="M15.7958 35C14.8241 34.8445 13.8913 34.54 12.9844 34.1578C12.5374 33.97 12.0839 33.795 11.624 33.6396C10.4968 33.2638 9.39551 33.4064 8.31367 33.8145C8.07398 33.9052 7.84725 34.0153 7.60756 34.093C7.21888 34.2291 6.83668 34.0671 6.70711 33.7303C6.58403 33.4064 6.74598 33.0825 7.12171 32.9076C8.12581 32.4541 9.1623 32.1302 10.27 32.1367C11.2094 32.1431 12.0904 32.4152 12.9584 32.7521C13.7293 33.0501 14.4937 33.3805 15.2905 33.5878C16.6768 33.9376 18.0113 33.6266 19.3134 33.1149C20.026 32.8363 20.7386 32.5318 21.4771 32.3245C22.8893 31.9229 24.2497 32.2079 25.5842 32.7456C26.3615 33.0566 27.1389 33.3869 27.9422 33.5878C29.2831 33.9311 30.5917 33.6461 31.8549 33.1472C32.0104 33.0889 32.1594 33.0242 32.3149 32.9594C32.71 32.8039 33.0404 32.9399 33.2024 33.3157C33.3319 33.6201 33.1765 33.9635 32.8137 34.1125C32.3991 34.2809 31.9845 34.4558 31.5569 34.5724C30.961 34.7408 30.3455 34.8574 29.7431 34.9935C29.3155 34.9935 28.8815 34.9935 28.4539 34.9935C28.305 34.9676 28.1495 34.9546 28.0005 34.9028C27.0612 34.5918 26.1024 34.3327 25.1955 33.944C23.6667 33.2898 22.1767 33.2574 20.6479 33.9181C19.9094 34.2356 19.1385 34.4882 18.3741 34.7279C17.9595 34.8574 17.519 34.9028 17.0914 34.9935C16.6509 35 16.2234 35 15.7958 35Z" fill="#1A232F"/>
<path d="M14.5136 12.0936C18.1608 12.0936 21.7949 12.0936 25.4745 12.0936C25.4745 11.9835 25.4745 11.8863 25.4745 11.7826C25.4874 10.934 25.4615 10.0854 25.5198 9.23677C25.6623 7.13141 27.3531 5.38233 29.4326 5.07138C31.8813 4.70214 34.2004 6.33461 34.6798 8.74444C34.7381 9.02948 34.764 9.32099 34.7705 9.6125C34.777 9.98175 34.5373 10.2409 34.2004 10.2733C33.883 10.3057 33.5785 10.0724 33.5461 9.70967C33.4814 9.05539 33.3712 8.42054 33.0149 7.85047C32.2441 6.61316 30.7541 6.0107 29.3354 6.37347C27.9232 6.73624 26.8867 7.98003 26.8025 9.42464C26.7895 9.63194 26.7831 9.83276 26.7831 10.0401C26.7831 15.0541 26.7831 20.0681 26.7831 25.0886C26.7831 25.2246 26.7831 25.3607 26.7636 25.4967C26.7183 25.8465 26.4656 26.0732 26.1417 26.0668C25.8049 26.0603 25.5457 25.8012 25.5328 25.4384C25.5198 24.9914 25.5263 24.5379 25.5263 24.091C25.5263 24.0327 25.5198 23.9744 25.5134 23.9031C21.8468 23.9031 18.1931 23.9031 14.4942 23.9031C14.4942 24.2011 14.5007 24.4926 14.4942 24.7776C14.4877 25.0432 14.4942 25.3024 14.4553 25.5615C14.41 25.8789 14.1379 26.0732 13.8334 26.0538C13.5419 26.0344 13.2698 25.7947 13.2374 25.5032C13.231 25.4384 13.231 25.3671 13.231 25.2959C13.231 20.107 13.231 14.9116 13.231 9.72263C13.231 7.64965 14.4553 5.93297 16.3793 5.25277C19.1454 4.28106 22.2031 6.22448 22.4816 9.1396C22.4946 9.27564 22.514 9.41168 22.5205 9.54772C22.5334 9.94936 22.2743 10.2538 21.918 10.2733C21.5812 10.2927 21.3026 10.0206 21.2573 9.62546C21.2249 9.3469 21.2119 9.06187 21.1407 8.78979C20.752 7.26745 19.3009 6.17913 17.7915 6.26335C16.0813 6.36052 14.695 7.546 14.533 9.17847C14.4359 10.1372 14.5136 11.1025 14.5136 12.0936ZM25.5069 20.3726C21.8209 20.3726 18.1672 20.3726 14.5007 20.3726C14.5007 21.1046 14.5007 21.8172 14.5007 22.5492C18.1802 22.5492 21.8403 22.5492 25.5069 22.5492C25.5069 21.8172 25.5069 21.1046 25.5069 20.3726ZM25.5069 13.3957C21.8273 13.3957 18.1672 13.3957 14.5007 13.3957C14.5007 14.1212 14.5007 14.8273 14.5007 15.5464C18.1802 15.5464 21.8403 15.5464 25.5069 15.5464C25.5069 14.8209 25.5069 14.1212 25.5069 13.3957ZM14.5136 16.9133C14.5136 17.6582 14.5136 18.3708 14.5136 19.0769C18.1931 19.0769 21.8468 19.0769 25.4939 19.0769C25.4939 18.3384 25.4939 17.6259 25.4939 16.9133C21.8209 16.9133 18.1802 16.9133 14.5136 16.9133Z" fill="#1A232F"/>
<path d="M29.1803 30.2127C28.0985 30.2322 27.1657 29.9795 26.2523 29.6232C25.6174 29.3771 24.989 29.105 24.3477 28.8847C23.1881 28.4896 22.048 28.6191 20.9208 29.0402C20.0009 29.3771 19.0875 29.7528 18.1417 30.0055C16.6064 30.42 15.0906 30.2322 13.6265 29.6297C13.0046 29.3771 12.3827 29.118 11.7544 28.8977C10.5754 28.4896 9.41579 28.6062 8.26918 29.0532C8.02301 29.1503 7.78332 29.254 7.53068 29.3317C7.20678 29.4354 6.86992 29.2864 6.74683 28.9949C6.63023 28.7098 6.7274 28.36 7.01891 28.211C8.27566 27.5827 9.59718 27.2264 11.0224 27.4142C12.0005 27.5438 12.8945 27.926 13.7885 28.3082C14.8703 28.7681 15.9781 29.0597 17.17 28.9107C18.1547 28.7876 19.0811 28.4637 19.9815 28.062C20.7524 27.7187 21.5427 27.4661 22.3849 27.3818C23.4991 27.2717 24.5485 27.5308 25.5721 27.9454C26.1875 28.1916 26.7964 28.4507 27.4183 28.6645C28.7139 29.0985 30.0095 29.0014 31.2857 28.5673C31.655 28.4442 32.0113 28.2952 32.3805 28.1592C32.7044 28.0361 33.0218 28.1527 33.1773 28.4442C33.3263 28.7228 33.2356 29.092 32.9311 29.254C32.5813 29.4354 32.2056 29.5844 31.8299 29.7139C30.9424 30.0184 30.0354 30.2257 29.1803 30.2127Z" fill="#1A232F"/>
</svg>
