<svg width="40" height="40" viewBox="0 0 40 40" fill="none" xmlns="http://www.w3.org/2000/svg">
<path d="M4.7998 15.7975C4.9423 15.1641 5.14022 14.5625 5.55189 14.0479C5.96355 13.5333 6.4623 13.1533 7.0798 12.9158C9.56564 11.9895 12.0515 11.0712 14.5294 10.1212C15.4081 9.78079 16.2948 9.63037 17.2448 9.63037C21.9948 9.65412 26.7448 9.63829 31.4948 9.63829C33.2602 9.63829 34.6456 10.715 35.0573 12.4012C35.3819 13.7233 34.8435 15.1958 33.7194 16.027C33.6323 16.0904 33.5452 16.1537 33.4581 16.217C35.6985 17.6737 35.7223 20.8087 33.4502 22.2891C33.561 22.3762 33.6719 22.4554 33.7827 22.5345C35.7935 24.0783 35.5402 27.2529 33.2919 28.4245C32.6823 28.7412 32.0094 28.9391 31.3681 29.1766C29.1752 30.0079 26.9823 30.847 24.7815 31.6466C24.3698 31.797 23.9186 31.8841 23.4831 31.8841C18.464 31.9 13.4527 31.9 8.43355 31.892C6.6048 31.892 5.21939 30.7204 4.86314 28.9233C4.85522 28.8837 4.83147 28.852 4.81564 28.8204C4.81564 28.5037 4.81564 28.187 4.81564 27.8704C4.83939 27.807 4.86314 27.7437 4.87897 27.6804C5.01355 27.0312 5.29064 26.4454 5.7498 25.9704C5.97939 25.7329 6.24064 25.527 6.48605 25.3054C5.54397 24.5058 5.25897 24.1416 5.02147 23.445C4.9423 23.2075 4.88689 22.9541 4.81564 22.7087C4.81564 22.4158 4.81564 22.115 4.81564 21.822C4.83939 21.7587 4.86314 21.6954 4.87897 21.632C5.0373 20.8404 5.40939 20.1754 6.01105 19.637C6.16939 19.4945 6.34355 19.3758 6.5098 19.2412C5.58355 18.5208 5.20355 18.0062 4.96605 17.1987C4.91064 17.0245 4.87105 16.8425 4.82355 16.6604C4.7998 16.3833 4.7998 16.0904 4.7998 15.7975ZM15.9069 30.9025C16.3581 30.9025 16.8173 30.9025 17.2686 30.9025C19.319 30.9025 21.3773 30.9104 23.4277 30.9025C25.2723 30.8945 26.4994 29.1766 25.8819 27.4983C25.494 26.4533 24.5598 25.8358 23.3327 25.8358C19.4456 25.8358 15.5506 25.8358 11.6636 25.8358C10.5869 25.8358 9.51022 25.8279 8.43355 25.8358C6.96105 25.8516 5.8448 26.8966 5.80522 28.2979C5.76564 29.7625 6.90564 30.9025 8.43355 30.9025C10.9273 30.9025 13.4131 30.9025 15.9069 30.9025ZM15.9544 13.6995C13.5556 13.6995 11.1569 13.6995 8.75814 13.6995C8.52064 13.6995 8.28314 13.6995 8.04564 13.7154C6.68397 13.8341 5.62314 15.1958 5.82897 16.5416C6.0348 17.8716 7.05605 18.7504 8.41772 18.7504C13.4211 18.7504 18.4323 18.7504 23.4356 18.7504C23.5069 18.7504 23.5702 18.7504 23.6415 18.7425C25.209 18.6633 26.3331 17.167 25.969 15.647C25.684 14.4437 24.7023 13.6916 23.3881 13.6916C20.9102 13.6995 18.4323 13.6995 15.9544 13.6995ZM15.9148 24.8225C15.9148 24.8145 15.9148 24.8145 15.9148 24.8225C18.4877 24.8145 21.0686 24.8383 23.6415 24.8066C25.1931 24.7908 26.3173 23.2629 25.9769 21.7587C25.6998 20.5712 24.7102 19.7716 23.4752 19.7716C20.5144 19.7637 17.5536 19.7716 14.5927 19.7716C12.5106 19.7716 10.4286 19.7637 8.34647 19.7716C6.91355 19.7795 5.78939 20.9433 5.82105 22.3525C5.8448 23.7537 6.96105 24.8145 8.43355 24.8145C10.9194 24.8225 13.4211 24.8225 15.9148 24.8225ZM26.7448 17.6895C26.8715 17.65 26.9427 17.6262 27.014 17.6025C28.8506 16.9137 30.6873 16.225 32.524 15.5362C33.4977 15.172 34.139 14.2379 34.139 13.2008C34.139 11.752 33.0069 10.6675 31.471 10.6595C26.4915 10.6516 21.5119 10.6516 16.5402 10.6675C16.2315 10.6675 15.9069 10.7229 15.614 10.8258C14.0465 11.3958 12.4869 11.9816 10.9273 12.5675C10.8719 12.5912 10.8244 12.6229 10.6977 12.6862C10.8956 12.6862 11.0065 12.6862 11.1094 12.6862C15.1469 12.6862 19.1844 12.6862 23.2298 12.6862C23.404 12.6862 23.5861 12.6862 23.7602 12.702C25.1694 12.7891 26.3806 13.7154 26.8477 15.0533C27.1486 15.9162 27.1011 16.7791 26.7448 17.6895ZM25.4148 19.2808C26.9585 20.4525 27.394 21.925 26.7686 23.7458C26.8794 23.7062 26.9665 23.6904 27.0456 23.6587C28.8665 22.9779 30.6794 22.297 32.5002 21.6083C33.5056 21.2283 34.1469 20.2941 34.139 19.2333C34.1231 18.1883 33.4423 17.2383 32.4448 16.882C32.2073 16.795 32.0015 16.8029 31.764 16.89C29.8085 17.6341 27.8531 18.3625 25.8977 19.0987C25.7394 19.162 25.589 19.2175 25.4148 19.2808ZM26.7448 29.8179C26.9031 29.7704 27.0061 29.7387 27.1011 29.707C28.9061 29.0262 30.719 28.3533 32.524 27.6725C33.5215 27.2924 34.1627 26.3266 34.131 25.25C34.0994 24.1812 33.3552 23.2154 32.326 22.9304C32.1677 22.8908 31.9698 22.8987 31.8194 22.9541C30.4894 23.437 29.1594 23.9437 27.8294 24.4425C27.0298 24.7433 26.2223 25.0441 25.3752 25.3608C26.1194 25.8595 26.626 26.4929 26.8794 27.3162C27.1486 28.1395 27.0852 28.9629 26.7448 29.8179Z" fill="#1A232F"/>
<path d="M35.1999 30.3483C35.1128 30.5225 35.0653 30.657 34.9782 30.752C34.7486 31.0054 34.4953 31.2508 34.2499 31.4883C34.0203 31.702 33.7353 31.71 33.5295 31.512C33.3157 31.3062 33.3078 31.0133 33.5374 30.7758C33.7828 30.5145 34.0203 30.2454 34.2974 30.0316C34.432 29.9366 34.6774 29.897 34.8357 29.9525C34.9861 30.0079 35.0732 30.2058 35.1999 30.3483Z" fill="#1A232F"/>
<path d="M35.1753 33.4754C35.0803 33.5941 34.9933 33.7921 34.8508 33.8475C34.7083 33.9108 34.4549 33.895 34.3362 33.8C34.0274 33.5546 33.7583 33.2616 33.4891 32.9687C33.3149 32.7787 33.3308 32.5412 33.497 32.3433C33.6633 32.1454 33.9087 32.0583 34.1066 32.2246C34.4549 32.5096 34.7558 32.85 35.0724 33.1746C35.1199 33.2379 35.1278 33.3329 35.1753 33.4754Z" fill="#1A232F"/>
<path d="M32.9194 32.6441C32.8244 32.8183 32.7769 32.9529 32.6898 33.0479C32.4602 33.2933 32.2227 33.5308 31.9852 33.7604C31.7477 33.99 31.4548 33.9821 31.249 33.7762C31.059 33.5783 31.059 33.2775 31.2648 33.0558C31.5102 32.7946 31.7556 32.5491 32.0169 32.3037C32.1831 32.1454 32.3969 32.0979 32.5869 32.2325C32.7215 32.3354 32.8086 32.5016 32.9194 32.6441Z" fill="#1A232F"/>
<path d="M32.8877 31.2112C32.7927 31.3299 32.7135 31.512 32.579 31.5754C32.4444 31.6387 32.191 31.6387 32.0881 31.5516C31.7635 31.2824 31.4627 30.9816 31.1856 30.657C31.0194 30.467 31.0669 30.2216 31.2569 30.0395C31.439 29.8574 31.6844 29.8179 31.8744 29.9841C32.191 30.2612 32.484 30.5699 32.769 30.8787C32.8323 30.942 32.8402 31.0608 32.8877 31.2112Z" fill="#1A232F"/>
<path d="M10.3649 6.62997C10.3649 6.79622 10.3728 6.96247 10.3649 7.13663C10.3411 7.43747 10.1195 7.63538 9.83445 7.61955C9.55737 7.60372 9.36737 7.41372 9.35945 7.11288C9.35154 6.78038 9.35154 6.43997 9.35945 6.10747C9.36737 5.81455 9.5732 5.61663 9.83445 5.6008C10.1036 5.58497 10.3332 5.79872 10.357 6.09163C10.3728 6.27372 10.3649 6.44788 10.3649 6.62997Z" fill="#1A232F"/>
<path d="M11.3709 8.62507C11.1968 8.62507 11.0147 8.63299 10.8405 8.62507C10.5634 8.60924 10.3813 8.41132 10.3655 8.15007C10.3576 7.88882 10.5238 7.65132 10.793 7.63549C11.173 7.61174 11.5609 7.61174 11.9488 7.63549C12.218 7.65132 12.3922 7.89674 12.3763 8.15007C12.3605 8.41132 12.1705 8.60132 11.9013 8.62507C11.7272 8.6409 11.553 8.62507 11.3709 8.62507Z" fill="#1A232F"/>
<path d="M8.33062 8.63284C8.16437 8.63284 7.99812 8.64076 7.82395 8.63284C7.53895 8.61701 7.35687 8.43492 7.33312 8.17367C7.31728 7.90451 7.47562 7.66701 7.73687 7.64326C8.12478 7.61159 8.52853 7.61159 8.91645 7.64326C9.1777 7.65909 9.35978 7.92034 9.34395 8.16576C9.32812 8.41909 9.1302 8.61701 8.85312 8.63284C8.68687 8.64076 8.50478 8.62492 8.33062 8.63284Z" fill="#1A232F"/>
<path d="M10.3648 9.63033C10.3648 9.8045 10.3727 9.98658 10.3648 10.1607C10.341 10.4695 10.1273 10.6595 9.84227 10.6516C9.56518 10.6437 9.37518 10.4537 9.36727 10.1528C9.35935 9.82033 9.35935 9.47991 9.36727 9.14741C9.37518 8.8545 9.5731 8.64866 9.84227 8.64075C10.1114 8.62491 10.3489 8.83075 10.3727 9.13158C10.3727 9.28991 10.3648 9.46408 10.3648 9.63033Z" fill="#1A232F"/>
<path d="M15.9394 27.8624C18.5361 27.8624 21.1327 27.8624 23.7294 27.8624C23.8402 27.8624 23.9511 27.8624 24.054 27.8703C24.3311 27.902 24.5131 28.0999 24.5211 28.3533C24.529 28.6066 24.3469 28.8124 24.0698 28.8599C23.9748 28.8758 23.8719 28.8758 23.7769 28.8758C18.544 28.8758 13.3111 28.8758 8.07815 28.8758C7.99107 28.8758 7.89607 28.8758 7.80898 28.8678C7.50815 28.8283 7.33398 28.6383 7.33398 28.3612C7.33398 28.0841 7.51607 27.8941 7.8169 27.8703C7.92773 27.8624 8.03065 27.8624 8.14148 27.8624C10.7461 27.8624 13.3427 27.8624 15.9394 27.8624Z" fill="#1A232F"/>
<path d="M15.9386 15.7262C18.5432 15.7262 21.1557 15.7262 23.7603 15.7262C23.8553 15.7262 23.9582 15.7262 24.0532 15.7341C24.3065 15.7579 24.4965 15.9479 24.5203 16.1933C24.544 16.4308 24.3778 16.6604 24.1324 16.7158C24.0374 16.7395 23.9345 16.7395 23.8395 16.7395C18.567 16.7395 13.2945 16.7395 8.02196 16.7395C7.60238 16.7395 7.38863 16.6049 7.34905 16.312C7.30155 16.0112 7.49155 15.7658 7.8003 15.7341C7.8953 15.7262 7.99821 15.7262 8.09321 15.7262C10.7057 15.7262 13.3182 15.7262 15.9386 15.7262Z" fill="#1A232F"/>
<path d="M15.9153 22.7958C13.2712 22.7958 10.6191 22.7958 7.97492 22.7958C7.57909 22.7958 7.38117 22.6533 7.34159 22.3604C7.30992 22.0754 7.48409 21.8379 7.777 21.7904C7.87992 21.7746 7.99075 21.7825 8.10158 21.7825C13.3187 21.7825 18.5278 21.7825 23.7449 21.7825C23.8716 21.7825 24.0062 21.7746 24.1249 21.8062C24.3703 21.8617 24.5366 22.0912 24.5207 22.3287C24.5049 22.5742 24.3149 22.7642 24.0616 22.7879C23.9666 22.7958 23.8637 22.7958 23.7687 22.7958C21.1482 22.7958 18.5357 22.7958 15.9153 22.7958Z" fill="#1A232F"/>
</svg>
