<svg width="50" height="50" viewBox="0 0 50 50" fill="none" xmlns="http://www.w3.org/2000/svg">
<path d="M4.1665 26.2715H39.5832" stroke="#1A232F" stroke-width="3" stroke-miterlimit="10" stroke-linecap="round" stroke-linejoin="round"/>
<path d="M39.5832 21.4173V36.3132C39.5207 42.2506 37.8957 43.7506 31.7082 43.7506H12.0415C5.74984 43.7506 4.1665 42.1882 4.1665 35.9798V21.4173C4.1665 15.7923 5.479 13.9798 10.4165 13.6882C10.9165 13.6673 11.4582 13.6465 12.0415 13.6465H31.7082C37.9998 13.6465 39.5832 15.209 39.5832 21.4173Z" stroke="#1A232F" stroke-width="3" stroke-linecap="round" stroke-linejoin="round"/>
<path d="M45.8332 14.0208V28.5833C45.8332 34.2083 44.5207 36.0208 39.5832 36.3125V21.4167C39.5832 15.2083 37.9998 13.6458 31.7082 13.6458H12.0415C11.4582 13.6458 10.9165 13.6667 10.4165 13.6875C10.479 7.75 12.104 6.25 18.2915 6.25H37.9582C44.2498 6.25 45.8332 7.8125 45.8332 14.0208Z" stroke="#1A232F" stroke-width="3" stroke-linecap="round" stroke-linejoin="round"/>
<path d="M10.9375 37.1035H14.5208M18.9792 37.1035H26.1458" stroke="#1A232F" stroke-width="3" stroke-miterlimit="10" stroke-linecap="round" stroke-linejoin="round"/>
</svg>
