<svg width="40" height="40" viewBox="0 0 40 40" fill="none" xmlns="http://www.w3.org/2000/svg">
<path d="M36.667 10.0007V14.034C36.667 16.6673 35.0003 18.334 32.367 18.334H26.667V6.68398C26.667 4.83398 28.1837 3.33398 30.0337 3.33398C31.8503 3.35065 33.517 4.08398 34.717 5.28398C35.917 6.50065 36.667 8.16732 36.667 10.0007Z" stroke="#1A232F" stroke-width="2" stroke-miterlimit="10" stroke-linecap="round" stroke-linejoin="round"/>
<path d="M3.33301 11.6673V35.0007C3.33301 36.384 4.89967 37.1673 5.99967 36.334L8.84967 34.2007C9.51634 33.7007 10.4497 33.7673 11.0497 34.3673L13.8163 37.1507C14.4663 37.8007 15.533 37.8007 16.183 37.1507L18.983 34.3507C19.5663 33.7673 20.4997 33.7007 21.1497 34.2007L23.9997 36.334C25.0997 37.1507 26.6663 36.3673 26.6663 35.0007V6.66732C26.6663 4.83398 28.1663 3.33398 29.9997 3.33398H9.99967C4.99967 3.33398 3.33301 6.31732 3.33301 10.0007V11.6673Z" stroke="#1A232F" stroke-width="2" stroke-miterlimit="10" stroke-linecap="round" stroke-linejoin="round"/>
<path d="M15 21.6842H20M15 15.0176H20" stroke="#1A232F" stroke-width="2" stroke-linecap="round" stroke-linejoin="round"/>
<path d="M9.99316 21.6667H10.0082M9.99316 15H10.0082" stroke="#1A232F" stroke-width="2" stroke-linecap="round" stroke-linejoin="round"/>
</svg>
