<svg width="50" height="50" viewBox="0 0 50 50" fill="none" xmlns="http://www.w3.org/2000/svg">
<path d="M12.5 20.8327V16.666C12.5 9.77018 14.5833 4.16602 25 4.16602C35.4167 4.16602 37.5 9.77018 37.5 16.666V20.8327M25 38.541C26.3813 38.541 27.7061 37.9923 28.6828 37.0155C29.6596 36.0388 30.2083 34.714 30.2083 33.3327C30.2083 31.9513 29.6596 30.6266 28.6828 29.6498C27.7061 28.6731 26.3813 28.1243 25 28.1243C23.6187 28.1243 22.2939 28.6731 21.3172 29.6498C20.3404 30.6266 19.7917 31.9513 19.7917 33.3327C19.7917 34.714 20.3404 36.0388 21.3172 37.0155C22.2939 37.9923 23.6187 38.541 25 38.541Z" stroke="#1A232F" stroke-width="3" stroke-linecap="round" stroke-linejoin="round"/>
<path d="M35.4165 45.834H14.5832C6.24984 45.834 4.1665 43.7507 4.1665 35.4173V31.2507C4.1665 22.9173 6.24984 20.834 14.5832 20.834H35.4165C43.7498 20.834 45.8332 22.9173 45.8332 31.2507V35.4173C45.8332 43.7507 43.7498 45.834 35.4165 45.834Z" stroke="#1A232F" stroke-width="3" stroke-linecap="round" stroke-linejoin="round"/>
</svg>
