<svg width="50" height="50" viewBox="0 0 50 50" fill="none" xmlns="http://www.w3.org/2000/svg">
<path d="M25 31.25C26.6576 31.25 28.2473 30.5915 29.4194 29.4194C30.5915 28.2473 31.25 26.6576 31.25 25C31.25 23.3424 30.5915 21.7527 29.4194 20.5806C28.2473 19.4085 26.6576 18.75 25 18.75C23.3424 18.75 21.7527 19.4085 20.5806 20.5806C19.4085 21.7527 18.75 23.3424 18.75 25C18.75 26.6576 19.4085 28.2473 20.5806 29.4194C21.7527 30.5915 23.3424 31.25 25 31.25Z" stroke="#0868F8" stroke-width="3" stroke-miterlimit="10" stroke-linecap="round" stroke-linejoin="round"/>
<path d="M4.1665 26.8336V23.167C4.1665 21.0003 5.93734 19.2086 8.12484 19.2086C11.8957 19.2086 13.4373 16.542 11.5415 13.2711C10.4582 11.3961 11.104 8.95865 12.9998 7.87532L16.604 5.81282C18.2498 4.83365 20.3748 5.41698 21.354 7.06282L21.5832 7.45865C23.4582 10.7295 26.5415 10.7295 28.4373 7.45865L28.6665 7.06282C29.6457 5.41698 31.7707 4.83365 33.4165 5.81282L37.0207 7.87532C38.9165 8.95865 39.5623 11.3961 38.479 13.2711C36.5832 16.542 38.1248 19.2086 41.8957 19.2086C44.0623 19.2086 45.854 20.9795 45.854 23.167V26.8336C45.854 29.0003 44.0832 30.792 41.8957 30.792C38.1248 30.792 36.5832 33.4586 38.479 36.7295C39.5623 38.6253 38.9165 41.042 37.0207 42.1253L33.4165 44.1878C31.7707 45.167 29.6457 44.5836 28.6665 42.9378L28.4373 42.542C26.5623 39.2711 23.479 39.2711 21.5832 42.542L21.354 42.9378C20.3748 44.5836 18.2498 45.167 16.604 44.1878L12.9998 42.1253C12.0917 41.6024 11.4281 40.7406 11.1547 39.729C10.8813 38.7174 11.0204 37.6386 11.5415 36.7295C13.4373 33.4586 11.8957 30.792 8.12484 30.792C5.93734 30.792 4.1665 29.0003 4.1665 26.8336Z" stroke="#0868F8" stroke-width="3" stroke-miterlimit="10" stroke-linecap="round" stroke-linejoin="round"/>
</svg>
