<svg width="50" height="50" viewBox="0 0 50 50" fill="none" xmlns="http://www.w3.org/2000/svg">
<path d="M25.3332 22.6467C25.1248 22.6259 24.8748 22.6259 24.6457 22.6467C22.2544 22.5655 19.9887 21.5568 18.3282 19.8341C16.6678 18.1114 15.743 15.8101 15.7498 13.4175C15.7498 8.31335 19.8748 4.16752 24.9998 4.16752C26.2132 4.14563 27.419 4.36295 28.5484 4.80706C29.6777 5.25117 30.7086 5.91338 31.582 6.75588C32.4555 7.59838 33.1544 8.60466 33.639 9.71729C34.1235 10.8299 34.3842 12.0271 34.4061 13.2404C34.428 14.4538 34.2107 15.6596 33.7666 16.789C33.3224 17.9183 32.6602 18.9492 31.8177 19.8226C30.9752 20.6961 29.9689 21.395 28.8563 21.8796C27.7437 22.3641 26.5465 22.6248 25.3332 22.6467ZM14.9165 30.3342C9.87484 33.7092 9.87484 39.2092 14.9165 42.5634C20.6457 46.3967 30.0415 46.3967 35.7707 42.5634C40.8123 39.1884 40.8123 33.6884 35.7707 30.3342C30.0623 26.5217 20.6665 26.5217 14.9165 30.3342Z" stroke="#1A232F" stroke-width="3" stroke-linecap="round" stroke-linejoin="round"/>
</svg>
