<svg width="50" height="50" viewBox="0 0 50 50" fill="none" xmlns="http://www.w3.org/2000/svg">
<path d="M37.5835 28.2298C36.7085 29.084 36.2085 30.3132 36.3335 31.6257C36.521 33.8757 38.5835 35.5215 40.8335 35.5215H44.7918V38.0006C44.7918 42.3131 41.271 45.834 36.9585 45.834H15.896C16.5418 45.2923 17.1043 44.6256 17.5418 43.8756C18.3127 42.6256 18.7502 41.1465 18.7502 39.584C18.75 38.0141 18.3063 36.4762 17.4701 35.1475C16.634 33.8188 15.4394 32.7534 14.0241 32.074C12.6088 31.3947 11.0304 31.1291 9.47066 31.3077C7.91096 31.4864 6.43349 32.1022 5.2085 33.084V23.9798C5.2085 19.6673 8.72933 16.1465 13.0418 16.1465H36.9585C41.271 16.1465 44.7918 19.6673 44.7918 23.9798V26.9798H40.5835C39.4168 26.9798 38.3543 27.4382 37.5835 28.2298Z" stroke="#0868F8" stroke-width="3" stroke-linecap="round" stroke-linejoin="round"/>
<path d="M5.2085 25.8532V16.3324C5.2085 13.8532 6.72933 11.6449 9.04183 10.7699L25.5835 4.5199C26.1828 4.29404 26.8281 4.217 27.4637 4.29538C28.0994 4.37376 28.7066 4.60522 29.2331 4.9699C29.7597 5.33459 30.1898 5.82159 30.4867 6.38912C30.7836 6.95665 30.9384 7.58774 30.9377 8.22823V16.1449M14.5835 24.9991H29.1668M46.9981 29.1032V33.3949C46.9981 34.5407 46.0814 35.4782 44.9147 35.5199H40.8314C38.5814 35.5199 36.5189 33.8741 36.3314 31.6241C36.2064 30.3116 36.7064 29.0824 37.5814 28.2282C38.3522 27.4366 39.4147 26.9782 40.5814 26.9782H44.9147C46.0814 27.0199 46.9981 27.9574 46.9981 29.1032Z" stroke="#0868F8" stroke-width="3" stroke-linecap="round" stroke-linejoin="round"/>
<path d="M13.5252 39.5426H7.31685M10.4168 36.501V42.7301M18.7502 39.5843C18.7502 41.1468 18.3127 42.626 17.5418 43.876C17.1043 44.626 16.5418 45.2926 15.896 45.8343C14.4377 47.1468 12.521 47.9176 10.4168 47.9176C8.98052 47.9206 7.56817 47.5495 6.31885 46.8408C5.06952 46.1321 4.02629 45.1103 3.29185 43.876C2.49881 42.5852 2.08044 41.0992 2.08351 39.5843C2.08351 36.9593 3.29185 34.6051 5.20851 33.0843C6.4335 32.1025 7.91098 31.4867 9.47068 31.3081C11.0304 31.1294 12.6088 31.395 14.0241 32.0743C15.4394 32.7537 16.634 33.8191 17.4701 35.1478C18.3063 36.4765 18.75 38.0144 18.7502 39.5843Z" stroke="#0868F8" stroke-width="3" stroke-miterlimit="10" stroke-linecap="round" stroke-linejoin="round"/>
</svg>
